<?xml version="1.0" encoding="UTF-8" standalone="no"?>
<!DOCTYPE svg PUBLIC "-//W3C//DTD SVG 1.1//EN" "http://www.w3.org/Graphics/SVG/1.1/DTD/svg11.dtd">
<svg width="100%" height="100%" viewBox="0 0 2481 3508" version="1.1" xmlns="http://www.w3.org/2000/svg" xmlns:xlink="http://www.w3.org/1999/xlink" xml:space="preserve" xmlns:serif="http://www.serif.com/" style="fill-rule:evenodd;clip-rule:evenodd;stroke-linecap:round;stroke-linejoin:round;stroke-miterlimit:100;">
    <g id="f82e801f-6ffc-42d2-abde-7f9b674bc5b9">
    </g>
    <g id="Layer1">
        <g id="Shopping-Bag" serif:id="Shopping Bag" transform="matrix(1.30281,0,0,1.30281,-400.599,-527.479)">
            <g transform="matrix(-1,0,0,1,1045.87,0)">
                <path d="M522.934,1250.67C522.934,1250.67 525.605,1250.67 509.381,1250.67C502.08,1250.67 499.87,1252.46 504.848,1229.16C510.331,1203.5 522.934,1153.33 522.934,1153.33" style="fill:none;stroke:black;stroke-width:8.33px;"/>
            </g>
            <path d="M522.934,1250.67L501.098,1250.67L522.934,1153.33" style="fill:none;stroke:black;stroke-width:8.33px;stroke-miterlimit:1.5;"/>
            <path d="M501.098,1250.67L412.576,1250.67L434.323,1153.33" style="fill:none;stroke:black;stroke-width:8.33px;stroke-miterlimit:1.5;"/>
            <path d="M434.323,1153.33L522.934,1153.33" style="fill:none;stroke:black;stroke-width:8.33px;stroke-miterlimit:1.5;"/>
            <path d="M454.324,1153.33C454.324,1153.33 453.139,1117.31 478.629,1117.31" style="fill:none;stroke:black;stroke-width:8.33px;stroke-miterlimit:1.5;"/>
            <g transform="matrix(-1,0,0,1,957.257,0)">
                <path d="M454.324,1153.33C454.324,1153.33 453.139,1117.31 478.629,1117.31" style="fill:none;stroke:black;stroke-width:8.33px;stroke-miterlimit:1.5;"/>
            </g>
            <g transform="matrix(1,0,0,1,2.16462,0)">
                <path d="M456.837,1179.7L478.629,1179.7" style="fill:none;stroke:black;stroke-width:8.33px;stroke-miterlimit:1.5;"/>
            </g>
        </g>
        <g id="Shopping-Bag-Full" serif:id="Shopping Bag Full" transform="matrix(1.30281,0,0,1.30281,85.5668,455.711)">
            <g transform="matrix(-1,0,0,0.904976,1045.87,118.847)">
                <path d="M522.934,1250.67C522.934,1250.67 525.605,1250.67 509.381,1250.67C502.08,1250.67 499.87,1252.46 504.848,1229.16C510.331,1203.5 522.934,1153.33 522.934,1153.33" style="fill:none;stroke:black;stroke-width:8.74px;"/>
            </g>
            <g transform="matrix(1,0,0,0.904976,0,118.847)">
                <path d="M522.934,1250.67L501.098,1250.67L522.934,1153.33" style="fill:none;stroke:black;stroke-width:8.74px;stroke-miterlimit:1.5;"/>
            </g>
            <path d="M501.098,1250.67L412.576,1250.67L434.323,1162.58" style="fill:none;stroke:black;stroke-width:8.33px;stroke-miterlimit:1.5;"/>
            <g transform="matrix(0.990964,0,0,1,4.56157,9.25307)">
                <path d="M434.323,1153.33L522.934,1153.33" style="fill:none;stroke:black;stroke-width:8.37px;stroke-miterlimit:1.5;"/>
            </g>
            <g transform="matrix(1,0,0,1,6.3852,8.6345)">
                <path d="M456.837,1179.7L478.629,1179.7" style="fill:none;stroke:black;stroke-width:8.33px;stroke-miterlimit:1.5;"/>
            </g>
            <g transform="matrix(1,0,0,1,-390.646,-730.676)">
                <path d="M835.924,1893.26C835.304,1891.23 834.971,1889.07 834.971,1886.84C834.971,1874.7 844.825,1864.85 856.963,1864.85C869.101,1864.85 878.956,1874.7 878.956,1886.84C878.956,1889.07 878.622,1891.23 878.002,1893.26L835.924,1893.26Z" style="fill-opacity:0;stroke:black;stroke-width:8.33px;stroke-miterlimit:1;"/>
            </g>
            <g transform="matrix(0.974622,0.223857,-0.223857,0.974622,77.8852,-900.214)">
                <path d="M889.498,1912.2L889.498,1882.22C889.498,1877.96 886.041,1874.5 881.783,1874.5L845.781,1874.5C841.523,1874.5 838.066,1877.96 838.066,1882.22L838.066,1895.25C848.42,1894.85 857.939,1901.84 860.343,1912.31C860.843,1914.49 861.001,1916.66 860.851,1918.78L889.498,1912.2Z" style="fill-opacity:0;stroke:black;stroke-width:8.33px;stroke-miterlimit:1;"/>
            </g>
        </g>
        <g id="Energy-Box" serif:id="Energy Box" transform="matrix(1.30281,0,0,1.30281,-374.681,-527.479)">
            <path d="M809.826,1238.5C801.32,1238.5 800.071,1228.75 800.071,1228.75L787.519,1174.49C787.519,1174.49 784.065,1162.59 798.723,1162.59" style="fill:none;stroke:black;stroke-width:8.33px;stroke-miterlimit:10;"/>
            <g transform="matrix(-1,0,0,1,1716.5,0)">
                <path d="M809.826,1238.5C801.32,1238.5 800.071,1228.75 800.071,1228.75L787.519,1174.49C787.519,1174.49 784.065,1162.59 798.723,1162.59" style="fill:none;stroke:black;stroke-width:8.33px;stroke-miterlimit:10;"/>
            </g>
            <path d="M840.894,1190.34L867.65,1162.6L862.719,1188.21L875.37,1188.21C875.37,1188.21 848.594,1214.08 848.655,1214.08C848.594,1214.08 853.137,1190.34 853.137,1190.34L840.894,1190.34Z" style="stroke:black;stroke-width:2.08px;stroke-miterlimit:1;"/>
            <g transform="matrix(1.23147,0,0,1,-198.218,0)">
                <path d="M832.036,1133.84L883.787,1134.04C885.673,1134.04 887.471,1135.02 888.747,1136.73C890.024,1138.44 890.663,1140.73 890.511,1143.04L884.482,1234.89C884.198,1239.22 881.263,1242.55 877.737,1242.55C865.559,1242.55 853.323,1242.58 837.983,1242.58C834.454,1242.58 831.518,1239.24 831.237,1234.9L825.269,1142.84C825.119,1140.51 825.765,1138.22 827.05,1136.51C828.336,1134.8 830.144,1133.83 832.036,1133.84ZM832.015,1142.17L837.983,1234.24C853.323,1234.24 865.559,1234.22 877.737,1234.22L883.766,1142.37L832.015,1142.17Z"/>
            </g>
        </g>
        <g id="Bell" transform="matrix(1.30281,0,0,1.30281,-417.7,-527.479)">
            <path d="M1182.1,1193.82C1174.64,1201.28 1305.59,1201.28 1298.13,1193.82C1293.84,1189.53 1277.63,1186.23 1277.63,1173.32C1277.63,1164.92 1277.63,1173.69 1277.63,1147.75C1277.63,1109.71 1201.19,1109.71 1201.19,1147.75C1201.19,1168.27 1201.04,1152.8 1201.04,1173.32C1201.04,1186.5 1187.98,1187.94 1182.1,1193.82Z" style="fill:none;stroke:black;stroke-width:8.33px;stroke-miterlimit:1;"/>
            <path d="M1240.16,1226.35C1240.16,1226.35 1264.44,1228.46 1264.44,1199.41" style="fill:none;stroke:black;stroke-width:8.33px;stroke-miterlimit:1;"/>
            <g transform="matrix(-1,0,0,1,2480.31,0)">
                <path d="M1240.16,1226.35C1240.16,1226.35 1264.44,1228.46 1264.44,1199.41" style="fill:none;stroke:black;stroke-width:8.33px;stroke-miterlimit:1;"/>
            </g>
            <g transform="matrix(1,0,0,1,0,1.27324)">
                <path d="M1275.12,1240.01C1263.7,1251.43 1256.3,1254.53 1240.15,1254.53" style="fill:none;stroke:black;stroke-width:8.33px;stroke-miterlimit:1;"/>
            </g>
            <g transform="matrix(-1,0,0,1,2480.31,1.27324)">
                <path d="M1275.12,1240.01C1263.7,1251.43 1256.3,1254.53 1240.15,1254.53" style="fill:none;stroke:black;stroke-width:8.33px;stroke-miterlimit:1;"/>
            </g>
        </g>
        <g id="Slurpie-Cup" serif:id="Slurpie Cup" transform="matrix(1.30281,0,0,1.30281,-419.692,-527.479)">
            <g transform="matrix(1,0,0,1,-133.185,0)">
                <path d="M1748.45,1180.14C1722.95,1180.14 1701.4,1177.85 1689.96,1166.41" style="fill:none;stroke:black;stroke-width:8.33px;stroke-miterlimit:1;"/>
            </g>
            <g transform="matrix(1,0,0,1,-133.185,0)">
                <path d="M1764.52,1126.79C1773.89,1126.79 1796.96,1153.62 1796.96,1162.99L1796.96,1172.68C1796.96,1172.68 1786.62,1226.43 1783.74,1241.74" style="fill:none;stroke:black;stroke-width:8.33px;stroke-miterlimit:1;"/>
            </g>
            <g transform="matrix(-1,0,0,1,3362.77,0)">
                <path d="M1764.52,1126.79C1773.89,1126.79 1796.96,1153.62 1796.96,1162.99L1796.96,1172.68C1796.96,1172.68 1786.62,1226.43 1783.74,1241.74" style="fill:none;stroke:black;stroke-width:8.33px;stroke-miterlimit:1;"/>
            </g>
            <g transform="matrix(1,0,0,1,-133.185,0)">
                <path d="M1731.44,1126.79L1764.53,1126.79" style="fill:none;stroke:black;stroke-width:8.33px;stroke-miterlimit:1;"/>
            </g>
            <g transform="matrix(1,0,0,1,-133.185,0)">
                <path d="M1748.82,1180.14C1774.19,1180.14 1795.87,1177.85 1807.31,1166.41" style="fill:none;stroke:black;stroke-width:8.33px;stroke-miterlimit:1;"/>
            </g>
            <g transform="matrix(1,0,0,1,-133.185,0)">
                <path d="M1783.74,1241.74C1781.17,1244.31 1777.62,1246.4 1773.46,1248.02C1772.52,1248.38 1771.56,1248.71 1770.56,1249.03C1751.75,1254.97 1723.18,1252.68 1712.24,1241.74" style="fill:none;stroke:black;stroke-width:8.33px;stroke-miterlimit:1;"/>
            </g>
            <g transform="matrix(1,0,0,1,-133.185,0)">
                <path d="M1723.81,1178.96C1723.81,1160.71 1748.45,1160.36 1748.45,1150.04" style="fill:none;stroke:black;stroke-width:8.33px;stroke-miterlimit:1;"/>
            </g>
            <g transform="matrix(-1,0,0,1,3364.09,0)">
                <path d="M1723.81,1178.96C1723.81,1160.71 1748.45,1160.36 1748.45,1150.04" style="fill:none;stroke:black;stroke-width:8.33px;stroke-miterlimit:1;"/>
            </g>
            <g transform="matrix(0.611417,0,0,0.611417,545.548,471.519)">
                <path d="M1748.82,1197.71C1751.63,1207 1757.48,1213.25 1767.29,1215.54C1757.35,1218 1750.79,1223.83 1748.82,1234.25C1746.86,1223.83 1740.29,1218 1730.35,1215.54C1740.16,1213.25 1746.01,1207 1748.82,1197.71Z" style="stroke:black;stroke-width:17.04px;stroke-miterlimit:1;"/>
            </g>
        </g>
        <g id="Coins" transform="matrix(1.30281,0,0,1.30281,-390.449,-527.479)">
            <g transform="matrix(1.06335,0,0,1.06335,-986.589,270.807)">
                <path d="M1748.82,1197.71C1751.63,1207 1757.48,1213.25 1767.29,1215.54C1757.35,1218 1750.79,1223.83 1748.82,1234.25C1746.86,1223.83 1740.29,1218 1730.35,1215.54C1740.16,1213.25 1746.01,1207 1748.82,1197.71Z" style="stroke:black;stroke-width:9.8px;stroke-miterlimit:1;"/>
            </g>
            <g transform="matrix(1,0,0,1,-53.1313,56.8664)">
                <path d="M883.639,1473.1C893.551,1460.22 909.119,1451.92 926.611,1451.92C956.523,1451.92 980.808,1476.2 980.808,1506.11C980.808,1531.18 963.753,1552.3 940.623,1558.48" style="fill:none;stroke:black;stroke-width:8.33px;stroke-miterlimit:1;"/>
            </g>
            <g transform="matrix(1,0,0,1,-53.1313,56.8664)">
                <path d="M940.623,1558.48C936.153,1559.67 931.456,1560.31 926.611,1560.31C896.699,1560.31 872.414,1536.03 872.414,1506.11C872.414,1493.69 876.601,1482.24 883.639,1473.1" style="fill:none;stroke:black;stroke-width:8.33px;stroke-miterlimit:1;"/>
            </g>
            <g transform="matrix(1,0,0,1,-82.0918,76.2177)">
                <path d="M969.583,1539.13C959.671,1552.01 944.103,1560.31 926.611,1560.31C896.699,1560.31 872.414,1536.03 872.414,1506.12C872.414,1481.05 889.469,1459.93 912.599,1453.75" style="fill:none;stroke:black;stroke-width:8.33px;stroke-miterlimit:1;"/>
            </g>
        </g>
        <g id="Holly-Coin" serif:id="Holly Coin" transform="matrix(0.975875,0,0,0.975875,387.294,486.94)">
            <g transform="matrix(1.06335,0,0,1.06335,-986.589,270.807)">
                <path d="M1748.82,1197.71C1751.63,1207 1757.48,1213.25 1767.29,1215.54C1757.35,1218 1750.79,1223.83 1748.82,1234.25C1746.86,1223.83 1740.29,1218 1730.35,1215.54C1740.16,1213.25 1746.01,1207 1748.82,1197.71Z" style="stroke:black;stroke-width:13.08px;stroke-miterlimit:1;"/>
            </g>
            <g transform="matrix(1.33501,0,0,1.33501,-778.737,-1039.5)">
                <path d="M1205.41,1924.67C1212.84,1915.02 1224.5,1908.8 1237.6,1908.8C1260.01,1908.8 1278.19,1926.99 1278.19,1949.4C1278.19,1968.18 1265.42,1983.99 1248.09,1988.62M1248.09,1988.62C1244.75,1989.52 1241.23,1990 1237.6,1990C1215.19,1990 1197,1971.81 1197,1949.4C1197,1940.1 1200.14,1931.52 1205.41,1924.67" style="fill:none;stroke:black;stroke-width:8.33px;stroke-miterlimit:1;"/>
            </g>
            <g transform="matrix(1.18795,0,0,1.18795,-635.289,-790.7)">
                <path d="M1335.01,1981.19C1344.09,1987.82 1350,1998.54 1350,2010.64C1350,2030.74 1333.67,2047.07 1313.57,2047.07C1305.47,2047.07 1297.99,2044.42 1291.94,2039.94" style="fill-opacity:0;stroke:black;stroke-width:9.36px;stroke-miterlimit:1;"/>
            </g>
            <g transform="matrix(-1.18795,0,0,1.18795,2382.25,-790.7)">
                <path d="M1335.01,1981.19C1344.09,1987.82 1350,1998.54 1350,2010.64C1350,2030.74 1333.67,2047.07 1313.57,2047.07C1305.47,2047.07 1297.99,2044.42 1291.94,2039.94" style="fill-opacity:0;stroke:black;stroke-width:9.36px;stroke-miterlimit:1;"/>
            </g>
            <g transform="matrix(1.33501,0,0,0.461312,-778.737,592.116)">
                <path d="M1237.6,1908.81L1237.6,1858.67" style="fill:none;stroke:black;stroke-width:11.14px;stroke-miterlimit:1;"/>
            </g>
            <g transform="matrix(-1.33501,0,0,0.461312,2525.7,592.116)">
                <path d="M1237.6,1908.81L1237.6,1858.67" style="fill:none;stroke:black;stroke-width:11.14px;stroke-miterlimit:1;"/>
            </g>
            <g transform="matrix(1.55391,1.03743e-17,5.89598e-17,1.55391,-1055.22,-1457.64)">
                <path d="M1278.2,1901.54L1288.8,1890.94" style="fill:none;stroke:black;stroke-width:7.16px;stroke-miterlimit:1;"/>
            </g>
            <g transform="matrix(-1.55391,1.03743e-17,-5.89598e-17,1.55391,2802.18,-1457.64)">
                <path d="M1278.2,1901.54L1288.8,1890.94" style="fill:none;stroke:black;stroke-width:7.16px;stroke-miterlimit:1;"/>
            </g>
        </g>
        <g id="Shop" transform="matrix(1.30281,0,0,1.30281,-388.7,-527.479)">
            <path d="M1934.06,1129.09L2058.82,1129.09" style="fill:none;stroke:black;stroke-width:8.33px;stroke-miterlimit:1;"/>
            <path d="M1934.06,1129.09L1934.06,1158.19C1934.1,1161.84 1936.93,1163.94 1943.25,1164.1L1996.44,1164.1" style="fill:none;stroke:black;stroke-width:8.33px;stroke-miterlimit:1;"/>
            <g transform="matrix(-1,0,0,1,3992.88,0)">
                <path d="M1934.06,1129.09L1934.06,1158.19C1934.1,1161.84 1936.93,1163.94 1943.25,1164.1L1996.44,1164.1" style="fill:none;stroke:black;stroke-width:8.33px;stroke-miterlimit:1;"/>
            </g>
            <path d="M1978.36,1164.1L1978.36,1129.1" style="fill:none;stroke:black;stroke-width:8.33px;stroke-miterlimit:1;"/>
            <g transform="matrix(-1,0,0,1,3992.88,0)">
                <path d="M1978.36,1164.1L1978.36,1129.1" style="fill:none;stroke:black;stroke-width:8.33px;stroke-miterlimit:1;"/>
            </g>
            <path d="M1996.44,1254.35L1948.61,1254.35C1944.76,1253.52 1943.03,1250.59 1942.92,1246.02L1942.92,1164.09" style="fill:none;stroke:black;stroke-width:8.33px;stroke-miterlimit:1;"/>
            <g transform="matrix(-1,0,0,1,3992.88,0)">
                <path d="M1996.44,1254.35L1948.61,1254.35C1944.76,1253.52 1943.03,1250.59 1942.92,1246.02L1942.92,1164.09" style="fill:none;stroke:black;stroke-width:8.33px;stroke-miterlimit:1;"/>
            </g>
            <path d="M1978.04,1254.35C1978.04,1254.35 1978.04,1255.52 1978.04,1207.23C1978.04,1203.95 1982.01,1199.8 1985.3,1199.8L1996.45,1199.8" style="fill:none;stroke:black;stroke-width:8.33px;stroke-miterlimit:1;"/>
            <g transform="matrix(-1,0,0,1,3992.88,0)">
                <path d="M1978.04,1254.35C1978.04,1254.35 1978.04,1255.52 1978.04,1207.23C1978.04,1203.95 1982.01,1199.8 1985.3,1199.8L1996.45,1199.8" style="fill:none;stroke:black;stroke-width:8.33px;stroke-miterlimit:1;"/>
            </g>
        </g>
        <g id="Gas-Station" serif:id="Gas Station" transform="matrix(1.30281,0,0,1.30281,-392.89,-527.479)">
            <path d="M466.933,1560.31L431.732,1560.31L431.732,1619.42C431.732,1626.3 425.381,1630.3 418.804,1632.34L466.933,1632.34" style="fill:none;stroke:black;stroke-width:8.33px;stroke-miterlimit:1;"/>
            <g transform="matrix(-1,0,0,1,933.866,0)">
                <path d="M466.933,1560.31L431.732,1560.31L431.732,1619.42C431.732,1626.3 425.381,1630.3 418.804,1632.34L466.933,1632.34" style="fill:none;stroke:black;stroke-width:8.33px;stroke-miterlimit:1;"/>
            </g>
            <path d="M431.732,1560.31L431.732,1521.53C431.732,1517.95 434.339,1515.15 437.916,1515.15L466.933,1515.15" style="fill:none;stroke:black;stroke-width:8.33px;stroke-miterlimit:1;"/>
            <g transform="matrix(-1,0,0,1,933.866,0)">
                <path d="M431.732,1560.31L431.732,1521.53C431.732,1517.95 434.339,1515.15 437.916,1515.15L466.933,1515.15" style="fill:none;stroke:black;stroke-width:8.33px;stroke-miterlimit:1;"/>
            </g>
            <g transform="matrix(1.45768,0,0,0.705505,-204.766,467.231)">
                <path d="M454.668,1586.56L466.933,1586.56" style="fill:none;stroke:black;stroke-width:7.28px;stroke-miterlimit:1;"/>
            </g>
            <path d="M502.135,1560.31L519.764,1560.31C524.926,1560.31 529.635,1564.94 529.554,1570.1L529.554,1601.21C529.554,1614.13 556.489,1614.13 556.489,1601.21L556.489,1538.93C556.489,1528.78 545.026,1522.45 534.878,1522.45" style="fill:none;stroke:black;stroke-width:8.33px;stroke-miterlimit:1;"/>
        </g>
        <g id="Bar-code-" serif:id="Bar code " transform="matrix(1.30281,0,0,1.30281,-390.668,-527.479)">
            <path d="M1172.02,1546.1L1172.02,1529.1C1172.02,1518.88 1182.46,1506.46 1192.68,1506.46L1210.2,1506.46" style="fill:none;stroke:black;stroke-width:8.33px;stroke-miterlimit:1;"/>
            <g transform="matrix(-1,0,0,1,2474.47,0)">
                <path d="M1172.02,1546.1L1172.02,1529.1C1172.02,1518.88 1182.46,1506.46 1192.68,1506.46L1210.2,1506.46" style="fill:none;stroke:black;stroke-width:8.33px;stroke-miterlimit:1;"/>
            </g>
            <g transform="matrix(1,0,0,-1,0,3144.44)">
                <path d="M1172.02,1546.1L1172.02,1529.1C1172.02,1518.88 1182.46,1506.46 1192.68,1506.46L1210.2,1506.46" style="fill:none;stroke:black;stroke-width:8.33px;stroke-miterlimit:1;"/>
            </g>
            <g transform="matrix(-1,0,0,-1,2474.47,3144.44)">
                <path d="M1172.02,1546.1L1172.02,1529.1C1172.02,1518.88 1182.46,1506.46 1192.68,1506.46L1210.2,1506.46" style="fill:none;stroke:black;stroke-width:8.33px;stroke-miterlimit:1;"/>
            </g>
            <path d="M1196.68,1540.97L1196.68,1601.93" style="fill:none;stroke:black;stroke-width:8.33px;stroke-miterlimit:1;"/>
            <g transform="matrix(-1,0,0,1,2474.47,0)">
                <path d="M1196.68,1540.97L1196.68,1601.93" style="fill:none;stroke:black;stroke-width:8.33px;stroke-miterlimit:1;"/>
            </g>
            <g transform="matrix(1,0,0,1,-0.84233,0)">
                <path d="M1223.84,1586.98L1223.84,1540.97" style="fill:none;stroke:black;stroke-width:8.33px;stroke-miterlimit:1;"/>
            </g>
            <g transform="matrix(-1,0,0,1,2475.31,0)">
                <path d="M1223.84,1586.98L1223.84,1540.97" style="fill:none;stroke:black;stroke-width:8.33px;stroke-miterlimit:1;"/>
            </g>
        </g>
        <g id="Card" transform="matrix(1.30281,0,0,1.30281,-361.357,-527.479)">
            <path d="M1549.22,1590.61L1549.22,1622.18C1549.22,1629.43 1555.11,1635.33 1562.37,1635.33L1670.79,1635.33C1678.05,1635.33 1683.95,1629.43 1683.95,1622.18L1683.95,1559.25C1683.95,1554.78 1681.71,1550.83 1678.3,1548.45" style="fill:none;stroke:black;stroke-width:8.33px;stroke-miterlimit:1;"/>
            <path d="M1678.3,1548.45C1676.17,1546.97 1673.59,1546.1 1670.8,1546.1L1562.38,1546.1C1555.12,1546.1 1549.22,1551.99 1549.22,1559.25L1549.22,1590.61" style="fill:none;stroke:black;stroke-width:8.33px;stroke-miterlimit:1;"/>
            <g transform="matrix(0.981894,-0.189433,0.189433,0.981894,-277.043,302.678)">
                <path d="M1683.94,1593.62L1683.94,1559.25C1683.94,1551.99 1678.05,1546.1 1670.79,1546.1L1562.37,1546.1C1555.11,1546.1 1549.21,1551.99 1549.21,1559.25L1549.21,1610.56" style="fill:none;stroke:black;stroke-width:8.33px;stroke-miterlimit:1;"/>
            </g>
            <path d="M1582.45,1569.96C1582.45,1568.17 1581,1566.72 1579.21,1566.72L1572.25,1566.72C1570.46,1566.72 1569.01,1568.17 1569.01,1569.96L1569.01,1576.43C1569.01,1578.22 1570.46,1579.67 1572.25,1579.67L1579.21,1579.67C1581,1579.67 1582.45,1578.22 1582.45,1576.43L1582.45,1569.96Z" style="stroke:black;stroke-width:8.33px;stroke-miterlimit:1;"/>
            <path d="M1580.09,1598.57C1580.09,1597.97 1579.61,1597.49 1579.01,1597.49L1570.09,1597.49C1569.49,1597.49 1569.01,1597.97 1569.01,1598.57L1569.01,1600.74C1569.01,1601.34 1569.49,1601.82 1570.09,1601.82L1579.01,1601.82C1579.61,1601.82 1580.09,1601.34 1580.09,1600.74L1580.09,1598.57Z" style="stroke:black;stroke-width:8.33px;stroke-miterlimit:1;"/>
            <g transform="matrix(1,0,0,1,27.2412,0)">
                <path d="M1580.09,1598.57C1580.09,1597.97 1579.61,1597.49 1579.01,1597.49L1570.09,1597.49C1569.49,1597.49 1569.01,1597.97 1569.01,1598.57L1569.01,1600.74C1569.01,1601.34 1569.49,1601.82 1570.09,1601.82L1579.01,1601.82C1579.61,1601.82 1580.09,1601.34 1580.09,1600.74L1580.09,1598.57Z" style="stroke:black;stroke-width:8.33px;stroke-miterlimit:1;"/>
            </g>
            <g transform="matrix(1,0,0,1,54.3425,0)">
                <path d="M1580.09,1598.57C1580.09,1597.97 1579.61,1597.49 1579.01,1597.49L1570.09,1597.49C1569.49,1597.49 1569.01,1597.97 1569.01,1598.57L1569.01,1600.74C1569.01,1601.34 1569.49,1601.82 1570.09,1601.82L1579.01,1601.82C1579.61,1601.82 1580.09,1601.34 1580.09,1600.74L1580.09,1598.57Z" style="stroke:black;stroke-width:8.33px;stroke-miterlimit:1;"/>
            </g>
            <g transform="matrix(1,0,0,1,81.237,0)">
                <path d="M1580.09,1598.57C1580.09,1597.97 1579.61,1597.49 1579.01,1597.49L1570.09,1597.49C1569.49,1597.49 1569.01,1597.97 1569.01,1598.57L1569.01,1600.74C1569.01,1601.34 1569.49,1601.82 1570.09,1601.82L1579.01,1601.82C1579.61,1601.82 1580.09,1601.34 1580.09,1600.74L1580.09,1598.57Z" style="stroke:black;stroke-width:8.33px;stroke-miterlimit:1;"/>
            </g>
        </g>
        <g id="Car-Oil" serif:id="Car Oil" transform="matrix(1.30281,0,0,1.30281,-348.913,-527.479)">
            <path d="M1940.92,1638.02L1940.92,1562.32" style="fill:none;stroke:black;stroke-width:8.33px;stroke-miterlimit:1;"/>
            <g transform="matrix(-1,0,0,1,3988.41,0)">
                <path d="M1940.92,1638.02L1940.92,1562.32" style="fill:none;stroke:black;stroke-width:8.33px;stroke-miterlimit:1;"/>
            </g>
            <path d="M1940.92,1607.58C1956.24,1622.9 1961.72,1624.24 1994.21,1624.24" style="fill:none;stroke:black;stroke-width:8.33px;stroke-miterlimit:1;"/>
            <g transform="matrix(-1,0,0,1,3988.41,0)">
                <path d="M1940.92,1607.58C1956.24,1622.9 1961.72,1624.24 1994.21,1624.24" style="fill:none;stroke:black;stroke-width:8.33px;stroke-miterlimit:1;"/>
            </g>
            <path d="M1994.21,1494.78C1994.21,1507.13 1976.52,1516.17 1976.52,1528.52C1976.52,1538.96 1983.77,1544.92 1994.21,1544.92" style="fill:none;stroke:black;stroke-width:8.33px;stroke-miterlimit:1;"/>
            <g transform="matrix(-1,0,0,1,3988.41,0)">
                <path d="M1994.21,1494.78C1994.21,1507.13 1976.52,1516.17 1976.52,1528.52C1976.52,1538.96 1983.77,1544.92 1994.21,1544.92" style="fill:none;stroke:black;stroke-width:8.33px;stroke-miterlimit:1;"/>
            </g>
            <path d="M1960.25,1526.34L1954.56,1526.34C1952.86,1526.34 1949.81,1526.05 1947.03,1532.65L1936.11,1560.94" style="fill:none;stroke:black;stroke-width:8.33px;stroke-miterlimit:1;"/>
            <g transform="matrix(-1,0,0,1,3988.41,0)">
                <path d="M1960.25,1526.34L1954.56,1526.34C1952.86,1526.34 1949.81,1526.05 1947.03,1532.65L1936.11,1560.94" style="fill:none;stroke:black;stroke-width:8.33px;stroke-miterlimit:1;"/>
            </g>
            <path d="M1921.33,1560.94L1934.61,1560.94C1941.44,1560.94 1960.41,1570.58 1994.21,1570.58" style="fill:none;stroke:black;stroke-width:8.33px;stroke-miterlimit:1;"/>
            <g transform="matrix(-1,0,0,1,3988.41,0)">
                <path d="M1921.33,1560.94L1934.61,1560.94C1941.44,1560.94 1960.41,1570.58 1994.21,1570.58" style="fill:none;stroke:black;stroke-width:8.33px;stroke-miterlimit:1;"/>
            </g>
            <g transform="matrix(0.5,0,0,0.5,980.513,802.666)">
                <circle cx="1975.45" cy="1589.28" r="8.698" style="stroke:black;stroke-width:16.67px;stroke-miterlimit:1;"/>
            </g>
            <g transform="matrix(-0.5,0,0,0.5,3008.57,802.666)">
                <circle cx="1975.45" cy="1589.28" r="8.698" style="stroke:black;stroke-width:16.67px;stroke-miterlimit:1;"/>
            </g>
        </g>
        <g id="Person" transform="matrix(1.30281,0,0,1.30281,-400.665,-527.479)">
            <g transform="matrix(1.11564,0,0,1.11564,-81.0591,-194.238)">
                <circle cx="502.426" cy="1883.3" r="23.239" style="fill-opacity:0;stroke:black;stroke-width:7.47px;stroke-miterlimit:1;"/>
            </g>
            <path d="M479.465,1957.48L456.157,1957.48C444.27,1957.48 420.916,1979.08 420.916,1994.37C420.916,1997.44 450.966,2014.67 459.768,2014.67M479.465,1957.48L502.773,1957.48C514.66,1957.48 538.014,1979.08 538.014,1994.37C538.014,1997.44 507.964,2014.67 499.161,2014.67" style="fill:none;stroke:black;stroke-width:8.33px;stroke-miterlimit:1;"/>
            <g transform="matrix(1,0,0,1,0.304271,0)">
                <path d="M459.464,2014.67C472.608,2016.63 485.726,2016.71 498.857,2014.67" style="fill:none;stroke:black;stroke-width:8.33px;stroke-miterlimit:1;"/>
            </g>
        </g>
        <g id="Lock" transform="matrix(1.30281,0,0,1.30281,-405.56,-527.479)">
            <path d="M1565.75,1940.23L1672.78,1940.23L1672.78,1966.85M1565.75,1940.23L1565.75,1966.85C1565.75,2033.08 1672.78,2033.08 1672.78,1966.85" style="fill:none;stroke:black;stroke-width:8.33px;stroke-miterlimit:1;"/>
            <g transform="matrix(1,0,0,1,0.618225,0)">
                <path d="M1589.47,1940.23L1589.47,1904.53C1589.47,1867.97 1647.81,1867.97 1647.81,1904.53L1647.81,1915.22" style="fill:none;stroke:black;stroke-width:8.33px;stroke-miterlimit:1;"/>
            </g>
            <path d="M1619.26,1966.8L1619.26,1978.38" style="fill:none;stroke:black;stroke-width:8.33px;stroke-miterlimit:1;"/>
        </g>
        <g id="Very-fast-flying-carpet" serif:id="Very fast flying carpet" transform="matrix(1.30281,0,0,1.30281,-372.133,-527.479)">
            <path d="M1928.02,1924.13L1928.02,1991.15" style="fill:none;stroke:black;stroke-width:8.33px;stroke-miterlimit:1;"/>
            <path d="M1941.63,2005.33C1932.58,2005.26 1928.02,2000.2 1928.02,1991.15" style="fill:none;stroke:black;stroke-width:8.33px;stroke-miterlimit:1;"/>
            <path d="M1955.24,1975.61L1955.24,1908.67" style="fill:none;stroke:black;stroke-width:8.33px;stroke-miterlimit:1;"/>
            <path d="M1955.24,1908.67C1947.26,1908.33 1940.58,1909.16 1935.82,1911.74C1931.35,1914.17 1928.57,1918.14 1928.02,1924.13" style="fill:none;stroke:black;stroke-width:8.33px;stroke-miterlimit:1;"/>
            <g transform="matrix(1,0,0,1,0,67.0187)">
                <path d="M1955.24,1908.67C1947.26,1908.33 1940.58,1909.16 1935.82,1911.74C1931.35,1914.17 1928.57,1918.14 1928.02,1924.13" style="fill:none;stroke:black;stroke-width:8.33px;stroke-miterlimit:1;"/>
            </g>
            <path d="M1941.63,2005.33L2053.43,2005.33L2053.43,1933.3L1979.77,1933.3" style="fill:none;stroke:black;stroke-width:8.33px;stroke-miterlimit:1;"/>
            <g transform="matrix(1,0,0,0.867319,1.82787,253.187)">
                <path d="M1979.94,1908.23L1979.94,1866.93" style="fill:none;stroke:black;stroke-width:8.9px;stroke-miterlimit:1;"/>
            </g>
            <g transform="matrix(1,0,0,0.437442,28.6408,1073.49)">
                <path d="M1979.94,1908.23L1979.94,1866.93" style="fill:none;stroke:black;stroke-width:10.8px;stroke-miterlimit:1;"/>
            </g>
            <g transform="matrix(1,0,0,1,-10.9048,-10.9175)">
                <circle cx="2004.87" cy="1980.23" r="10.918" style="stroke:black;stroke-width:8.33px;stroke-miterlimit:1;"/>
            </g>
        </g>
        <g id="Very-big-coin-in-hand" serif:id="Very big coin in hand" transform="matrix(1.30281,0,0,1.30281,-593.206,-527.479)">
            <g transform="matrix(0.889027,0,0,0.889027,-924.788,1227.47)">
                <path d="M1748.82,1197.71C1751.63,1207 1757.48,1213.25 1767.29,1215.54C1757.35,1218 1750.79,1223.83 1748.82,1234.25C1746.86,1223.83 1740.29,1218 1730.35,1215.54C1740.16,1213.25 1746.01,1207 1748.82,1197.71Z" style="stroke:black;stroke-width:11.72px;stroke-miterlimit:1;"/>
            </g>
            <g transform="matrix(1.11615,0,0,1.11615,-751.235,133.054)">
                <path d="M1205.41,1924.67C1212.84,1915.02 1224.5,1908.8 1237.6,1908.8C1260.01,1908.8 1278.19,1926.99 1278.19,1949.4C1278.19,1958.75 1274.33,1969.14 1269.01,1976.01" style="fill:none;stroke:black;stroke-width:7.47px;stroke-miterlimit:1;"/>
            </g>
            <g transform="matrix(1.11615,0,0,1.11615,-750.52,132.166)">
                <path d="M1212.54,1981.34C1203.08,1973.9 1197,1962.36 1197,1949.41C1197,1940.11 1200.14,1931.53 1205.41,1924.68" style="fill:none;stroke:black;stroke-width:7.47px;stroke-miterlimit:1;"/>
            </g>
            <g transform="matrix(1,0,0,1,144.361,0)">
                <path d="M427.622,2388.76L491.192,2388.76C511.564,2388.76 532.936,2360.49 539.629,2351.49C552.278,2334.49 531.496,2324.01 519.351,2340.51C500.238,2366.48 482.611,2365.81 482.611,2365.81L455.239,2365.81M429.394,2366.05C429.394,2350.41 438.574,2343.8 447.046,2343.8L497.056,2343.8C497.238,2358.7 490.366,2366.54 474.985,2365.87" style="fill:none;stroke:black;stroke-width:8.33px;stroke-miterlimit:1;"/>
            </g>
        </g>
        <g id="Phone-crashed-by-shopping-cart" serif:id="Phone crashed by shopping cart" transform="matrix(1.30281,0,0,1.30281,-415.818,-527.479)">
            <path d="M887.619,2379.32C887.619,2386.09 882.127,2391.58 875.362,2391.58L818.614,2391.58C811.849,2391.58 806.356,2386.09 806.356,2379.32L806.356,2268.62C806.356,2261.85 811.849,2256.36 818.614,2256.36L875.362,2256.36C882.127,2256.36 887.619,2261.85 887.619,2268.62" style="fill:none;stroke:black;stroke-width:8.33px;stroke-miterlimit:1;"/>
            <g transform="matrix(1,0,0,0.5,-0.899601,1129.26)">
                <path d="M857.306,2259.42C857.306,2257.73 856.619,2256.36 855.773,2256.36L840.001,2256.36C839.156,2256.36 838.469,2257.73 838.469,2259.42L838.469,2265.55C838.469,2267.24 839.156,2268.61 840.001,2268.61L855.773,2268.61C856.619,2268.61 857.306,2267.24 857.306,2265.55L857.306,2259.42Z" style="fill:none;stroke:black;stroke-width:10.54px;stroke-miterlimit:1;"/>
            </g>
            <path d="M887.619,2268.62L887.619,2277.69" style="fill:none;stroke:black;stroke-width:8.33px;stroke-miterlimit:1;"/>
            <g transform="matrix(1.07761,0.765485,-0.765485,1.07761,1734.92,-852.3)">
                <circle cx="871.221" cy="2358.32" r="2.581" style="stroke:black;stroke-width:6.3px;stroke-miterlimit:1;"/>
            </g>
            <g transform="matrix(1.07761,0.765485,-0.765485,1.07761,1770.82,-852.3)">
                <circle cx="871.221" cy="2358.32" r="2.581" style="stroke:black;stroke-width:6.3px;stroke-miterlimit:1;"/>
            </g>
            <path d="M841.204,2287.32C848.986,2287.32 849.071,2286.54 852.883,2293.32L865.092,2329.65C867.412,2335.85 870.437,2337.77 874.517,2337.77C899.971,2337.77 898.666,2337.77 898.666,2337.77C904.135,2337.77 904.928,2334.36 908.059,2328.38L915.743,2309.65C918.843,2301.15 920.214,2301.56 907.649,2301.56L856.406,2301.56" style="fill:none;stroke:black;stroke-width:8.33px;stroke-miterlimit:1;"/>
        </g>
        <g id="Weird-tongue" serif:id="Weird tongue" transform="matrix(1.30281,0,0,1.30281,-374.884,-527.479)">
            <path d="M1282.16,2306.92L1294.65,2306.92C1301.9,2306.92 1307.79,2301.03 1307.79,2293.77C1307.79,2286.52 1301.9,2280.63 1294.65,2280.63L1177.5,2280.63C1170.25,2280.63 1164.36,2286.52 1164.36,2293.77C1164.36,2301.03 1170.25,2306.92 1177.5,2306.92L1191.84,2306.92M1191.84,2306.08L1191.84,2357.9C1191.84,2365.15 1197.72,2371.03 1204.97,2371.03L1268.4,2371.03C1275.64,2371.03 1281.52,2365.15 1281.52,2357.9L1281.52,2280.63M1191.84,2280.63L1191.84,2306.08" style="fill-opacity:0;stroke:black;stroke-width:8.33px;stroke-miterlimit:1;"/>
            <g transform="matrix(6.12323e-17,-1,1,6.12323e-17,-354.482,3920.07)">
                <path d="M1582.45,1569.96C1582.45,1568.17 1581,1566.72 1579.21,1566.72L1572.25,1566.72C1570.46,1566.72 1569.01,1568.17 1569.01,1569.96L1569.01,1576.43C1569.01,1578.22 1570.46,1579.67 1572.25,1579.67L1579.21,1579.67C1581,1579.67 1582.45,1578.22 1582.45,1576.43L1582.45,1569.96Z" style="stroke:black;stroke-width:8.33px;stroke-miterlimit:1;"/>
            </g>
            <g transform="matrix(6.12323e-17,-1,1,6.12323e-17,-345.177,3892.83)">
                <path d="M1580.09,1598.57C1580.09,1597.97 1579.61,1597.49 1579.01,1597.49L1570.09,1597.49C1569.49,1597.49 1569.01,1597.97 1569.01,1598.57L1569.01,1600.74C1569.01,1601.34 1569.49,1601.82 1570.09,1601.82L1579.01,1601.82C1579.61,1601.82 1580.09,1601.34 1580.09,1600.74L1580.09,1598.57Z" style="stroke:black;stroke-width:8.33px;stroke-miterlimit:1;"/>
            </g>
            <g transform="matrix(6.12323e-17,-1,1,6.12323e-17,-345.177,3918.51)">
                <path d="M1580.09,1598.57C1580.09,1597.97 1579.61,1597.49 1579.01,1597.49L1570.09,1597.49C1569.49,1597.49 1569.01,1597.97 1569.01,1598.57L1569.01,1600.74C1569.01,1601.34 1569.49,1601.82 1570.09,1601.82L1579.01,1601.82C1579.61,1601.82 1580.09,1601.34 1580.09,1600.74L1580.09,1598.57Z" style="stroke:black;stroke-width:8.33px;stroke-miterlimit:1;"/>
            </g>
            <g transform="matrix(6.12323e-17,-1,1,6.12323e-17,-345.177,3864.95)">
                <path d="M1580.09,1598.57C1580.09,1597.97 1579.61,1597.49 1579.01,1597.49L1570.09,1597.49C1569.49,1597.49 1569.01,1597.97 1569.01,1598.57L1569.01,1600.74C1569.01,1601.34 1569.49,1601.82 1570.09,1601.82L1579.01,1601.82C1579.61,1601.82 1580.09,1601.34 1580.09,1600.74L1580.09,1598.57Z" style="stroke:black;stroke-width:8.33px;stroke-miterlimit:1;"/>
            </g>
        </g>
        <g id="Qr-code" serif:id="Qr code" transform="matrix(1.30281,0,0,1.30281,-374.884,-527.479)">
            <g transform="matrix(1,0,0,1,380.764,747.818)">
                <path d="M1172.02,1546.1L1172.02,1529.1C1172.02,1518.88 1182.46,1506.46 1192.68,1506.46L1210.2,1506.46" style="fill:none;stroke:black;stroke-width:8.33px;stroke-miterlimit:1;"/>
            </g>
            <g transform="matrix(-1,0,0,1,2855.23,747.818)">
                <path d="M1172.02,1546.1L1172.02,1529.1C1172.02,1518.88 1182.46,1506.46 1192.68,1506.46L1210.2,1506.46" style="fill:none;stroke:black;stroke-width:8.33px;stroke-miterlimit:1;"/>
            </g>
            <g transform="matrix(1,0,0,-1,380.764,3892.26)">
                <path d="M1172.02,1546.1L1172.02,1529.1C1172.02,1518.88 1182.46,1506.46 1192.68,1506.46L1210.2,1506.46" style="fill:none;stroke:black;stroke-width:8.33px;stroke-miterlimit:1;"/>
            </g>
            <g transform="matrix(-1,0,0,-1,2855.23,3892.26)">
                <path d="M1172.02,1546.1L1172.02,1529.1C1172.02,1518.88 1182.46,1506.46 1192.68,1506.46L1210.2,1506.46" style="fill:none;stroke:black;stroke-width:8.33px;stroke-miterlimit:1;"/>
            </g>
            <rect x="1575.98" y="2279.38" width="28.272" height="28.272" style="fill-opacity:0;stroke:black;stroke-width:8.33px;stroke-miterlimit:1;"/>
            <g transform="matrix(1,0,0,1,54.1175,0)">
                <rect x="1575.98" y="2279.38" width="28.272" height="28.272" style="fill-opacity:0;stroke:black;stroke-width:8.33px;stroke-miterlimit:1;"/>
            </g>
            <g transform="matrix(1,0,0,1,0.347806,53.7697)">
                <rect x="1575.98" y="2279.38" width="28.272" height="28.272" style="fill-opacity:0;stroke:black;stroke-width:8.33px;stroke-miterlimit:1;"/>
            </g>
            <g transform="matrix(1,0,0,1,54.0418,53.7697)">
                <path d="M1604.26,2279.38L1575.99,2279.38" style="fill:none;stroke:black;stroke-width:8.33px;stroke-miterlimit:1;"/>
            </g>
            <g transform="matrix(2.51588e-17,-0.410874,0.410874,2.51588e-17,693.563,3008.95)">
                <path d="M1604.26,2279.38L1575.99,2279.38" style="fill:none;stroke:black;stroke-width:20.28px;stroke-miterlimit:1;"/>
            </g>
            <g transform="matrix(0.410874,-3.08149e-33,1.70647e-33,0.410874,999.149,1413.26)">
                <path d="M1604.26,2279.38L1575.99,2279.38" style="fill:none;stroke:black;stroke-width:20.28px;stroke-miterlimit:1;"/>
            </g>
            <g transform="matrix(2.51588e-17,-0.410874,0.410874,2.51588e-17,721.835,3008.95)">
                <path d="M1604.26,2279.38L1575.99,2279.38" style="fill:none;stroke:black;stroke-width:20.28px;stroke-miterlimit:1;"/>
            </g>
        </g>
        <g id="Holly-ticket" serif:id="Holly ticket" transform="matrix(1.30281,0,0,1.30281,-385.42,-527.479)">
            <g transform="matrix(1,0,0,1.01048,0,-25.0362)">
                <path d="M2048.21,2326.51L2048.21,2269.57C2048.21,2266.44 2045.64,2263.9 2042.48,2263.9L2011.76,2263.9C2011.76,2291.07 1976.57,2291.07 1976.57,2263.9L1946.63,2263.9C1943.47,2263.9 1940.91,2266.44 1940.91,2269.57L1940.91,2326.24" style="fill-opacity:0;stroke:black;stroke-width:8.29px;stroke-miterlimit:1;"/>
            </g>
            <g transform="matrix(1,0,0,-1.01048,0,4676.64)">
                <path d="M2048.21,2326.51L2048.21,2269.57C2048.21,2266.44 2045.64,2263.9 2042.48,2263.9L2011.76,2263.9C2011.76,2291.07 1976.57,2291.07 1976.57,2263.9L1946.63,2263.9C1943.47,2263.9 1940.91,2266.44 1940.91,2269.57L1940.91,2326.24" style="fill-opacity:0;stroke:black;stroke-width:8.29px;stroke-miterlimit:1;"/>
            </g>
            <g transform="matrix(0.889027,0,0,0.889027,439.817,1244.71)">
                <path d="M1748.82,1197.71C1751.63,1207 1757.48,1213.25 1767.29,1215.54C1757.35,1218 1750.79,1223.83 1748.82,1234.25C1746.86,1223.83 1740.29,1218 1730.35,1215.54C1740.16,1213.25 1746.01,1207 1748.82,1197.71Z" style="stroke:black;stroke-width:11.72px;stroke-miterlimit:1;"/>
            </g>
        </g>
    </g>
</svg>
