<?xml version="1.0" encoding="UTF-8" standalone="no"?>
<!DOCTYPE svg PUBLIC "-//W3C//DTD SVG 1.1//EN" "http://www.w3.org/Graphics/SVG/1.1/DTD/svg11.dtd">
<svg width="100%" height="100%" viewBox="0 0 2481 3508" version="1.1" xmlns="http://www.w3.org/2000/svg" xmlns:xlink="http://www.w3.org/1999/xlink" xml:space="preserve" xmlns:serif="http://www.serif.com/" style="fill-rule:evenodd;clip-rule:evenodd;stroke-linecap:round;stroke-linejoin:round;stroke-miterlimit:100;">
    <g id="f82e801f-6ffc-42d2-abde-7f9b674bc5b9" transform="matrix(1.4277,0,0,1.4277,-188.968,681.736)">
        <path d="M-0,-172.202l2002,-0c95.105,-0 172.202,77.097 172.202,172.202l0,1502c0,95.105 -77.097,172.202 -172.202,172.202l-2002,0c-95.105,0 -172.202,-77.097 -172.202,-172.202l-0,-1502c-0,-95.105 77.097,-172.202 172.202,-172.202Z" style="fill:#808080;fill-opacity:0;"/>
    </g>
    <g id="Layer1">
        <g id="Shopping-Bag" serif:id="Shopping Bag" transform="matrix(1,0,0,1,147.84,0)">
            <g transform="matrix(-1,0,0,1,1045.87,0)">
                <path d="M522.934,1250.67c0,0 2.671,0 -13.553,0c-7.301,0 -9.511,1.787 -4.533,-21.506c5.483,-25.664 18.086,-75.839 18.086,-75.839" style="fill:none;stroke:#000;stroke-width:8.33px;"/>
            </g>
            <path d="M522.934,1250.67l-21.836,0l21.836,-97.345" style="fill:none;stroke:#000;stroke-width:8.33px;stroke-miterlimit:1.5;"/>
            <path d="M501.098,1250.67l-88.522,0l21.747,-97.345" style="fill:none;stroke:#000;stroke-width:8.33px;stroke-miterlimit:1.5;"/>
            <path d="M434.323,1153.33l88.611,0" style="fill:none;stroke:#000;stroke-width:8.33px;stroke-miterlimit:1.5;"/>
            <path d="M454.324,1153.33c-0,0 -1.185,-36.022 24.305,-36.022" style="fill:none;stroke:#000;stroke-width:8.33px;stroke-miterlimit:1.5;"/>
            <g transform="matrix(-1,0,0,1,957.257,0)">
                <path d="M454.324,1153.33c-0,0 -1.185,-36.022 24.305,-36.022" style="fill:none;stroke:#000;stroke-width:8.33px;stroke-miterlimit:1.5;"/>
            </g>
            <g transform="matrix(1,0,0,1,2.16462,0)">
                <path d="M456.837,1179.7l21.792,-0" style="fill:none;stroke:#000;stroke-width:8.33px;stroke-miterlimit:1.5;"/>
            </g>
        </g>
        <g id="Shopping-Bag-Full" serif:id="Shopping Bag Full" transform="matrix(1,0,0,1,521.008,754.671)">
            <g transform="matrix(-1,0,0,0.904976,1045.87,118.847)">
                <path d="M522.934,1250.67c0,0 2.671,0 -13.553,0c-7.301,0 -9.511,1.787 -4.533,-21.506c5.483,-25.664 18.086,-75.839 18.086,-75.839" style="fill:none;stroke:#000;stroke-width:8.74px;"/>
            </g>
            <g transform="matrix(1,0,0,0.904976,0,118.847)">
                <path d="M522.934,1250.67l-21.836,0l21.836,-97.345" style="fill:none;stroke:#000;stroke-width:8.74px;stroke-miterlimit:1.5;"/>
            </g>
            <path d="M501.098,1250.67l-88.522,0l21.747,-88.092" style="fill:none;stroke:#000;stroke-width:8.33px;stroke-miterlimit:1.5;"/>
            <g transform="matrix(0.990964,0,0,1,4.56157,9.25307)">
                <path d="M434.323,1153.33l88.611,0" style="fill:none;stroke:#000;stroke-width:8.37px;stroke-miterlimit:1.5;"/>
            </g>
            <g transform="matrix(1,0,0,1,6.3852,8.6345)">
                <path d="M456.837,1179.7l21.792,-0" style="fill:none;stroke:#000;stroke-width:8.33px;stroke-miterlimit:1.5;"/>
            </g>
            <g transform="matrix(1,0,0,1,-390.646,-730.676)">
                <path d="M835.924,1893.26c-0.62,-2.032 -0.953,-4.188 -0.953,-6.421c-0,-12.138 9.854,-21.993 21.992,-21.993c12.138,0 21.993,9.855 21.993,21.993c-0,2.233 -0.334,4.389 -0.954,6.421l-42.078,0Z" style="fill-opacity:0;stroke:#000;stroke-width:8.33px;stroke-miterlimit:1;"/>
            </g>
            <g transform="matrix(0.974622,0.223857,-0.223857,0.974622,77.8852,-900.214)">
                <path d="M889.498,1912.2l-0,-29.982c-0,-4.258 -3.457,-7.715 -7.715,-7.715l-36.002,-0c-4.258,-0 -7.715,3.457 -7.715,7.715l-0,13.034c10.354,-0.406 19.873,6.591 22.277,17.056c0.5,2.177 0.658,4.353 0.508,6.472l28.647,-6.58Z" style="fill-opacity:0;stroke:#000;stroke-width:8.33px;stroke-miterlimit:1;"/>
            </g>
        </g>
        <g id="Energy-Box" serif:id="Energy Box" transform="matrix(1,0,0,1,167.734,0)">
            <path d="M809.826,1238.5c-8.506,-0 -9.755,-9.755 -9.755,-9.755l-12.552,-54.26c-0,-0 -3.454,-11.897 11.204,-11.897" style="fill:none;stroke:#000;stroke-width:8.33px;stroke-miterlimit:10;"/>
            <g transform="matrix(-1,0,0,1,1716.5,0)">
                <path d="M809.826,1238.5c-8.506,-0 -9.755,-9.755 -9.755,-9.755l-12.552,-54.26c-0,-0 -3.454,-11.897 11.204,-11.897" style="fill:none;stroke:#000;stroke-width:8.33px;stroke-miterlimit:10;"/>
            </g>
            <path d="M840.894,1190.34l26.756,-27.745l-4.931,25.614l12.651,-0c0,-0 -26.776,25.875 -26.715,25.874c-0.061,0.001 4.482,-23.743 4.482,-23.743l-12.243,0Z" style="stroke:#000;stroke-width:2.08px;stroke-miterlimit:1;"/>
            <g transform="matrix(1.23147,0,0,1,-198.218,0)">
                <path d="M832.036,1133.84l51.751,0.196c1.886,0.007 3.684,0.983 4.96,2.692c1.277,1.709 1.916,3.997 1.764,6.312l-6.029,91.852c-0.284,4.328 -3.219,7.662 -6.745,7.662c-12.178,-0 -24.414,0.022 -39.754,0.022c-3.529,-0 -6.465,-3.339 -6.746,-7.671l-5.968,-92.069c-0.15,-2.322 0.496,-4.616 1.781,-6.325c1.286,-1.71 3.094,-2.678 4.986,-2.671Zm-0.021,8.333l5.968,92.069c15.34,0 27.576,-0.022 39.754,-0.022l6.029,-91.851l-51.751,-0.196Z"/>
            </g>
        </g>
        <g id="Bell" transform="matrix(1,0,0,1,134.714,0)">
            <path d="M1182.1,1193.82c-7.458,7.458 123.485,7.458 116.026,0c-4.291,-4.292 -20.498,-7.586 -20.498,-20.498c0,-8.404 0,0.369 0,-25.574c0,-38.038 -76.439,-38.038 -76.439,-0c-0,20.524 -0.148,5.049 -0.148,25.574c-0,13.176 -13.064,14.621 -18.941,20.498Z" style="fill:none;stroke:#000;stroke-width:8.33px;stroke-miterlimit:1;"/>
            <path d="M1240.16,1226.35c0,-0 24.285,2.106 24.285,-26.94" style="fill:none;stroke:#000;stroke-width:8.33px;stroke-miterlimit:1;"/>
            <g transform="matrix(-1,0,0,1,2480.31,0)">
                <path d="M1240.16,1226.35c0,-0 24.285,2.106 24.285,-26.94" style="fill:none;stroke:#000;stroke-width:8.33px;stroke-miterlimit:1;"/>
            </g>
            <g transform="matrix(1,0,0,1,0,1.27324)">
                <path d="M1275.12,1240.01c-11.418,11.417 -18.819,14.52 -34.966,14.52" style="fill:none;stroke:#000;stroke-width:8.33px;stroke-miterlimit:1;"/>
            </g>
            <g transform="matrix(-1,0,0,1,2480.31,1.27324)">
                <path d="M1275.12,1240.01c-11.418,11.417 -18.819,14.52 -34.966,14.52" style="fill:none;stroke:#000;stroke-width:8.33px;stroke-miterlimit:1;"/>
            </g>
        </g>
        <g id="Slurpie-Cup" serif:id="Slurpie Cup" transform="matrix(1,0,0,1,133.185,0)">
            <g transform="matrix(1,0,0,1,-133.185,0)">
                <path d="M1748.45,1180.14c-25.496,-0 -47.047,-2.287 -58.491,-13.731" style="fill:none;stroke:#000;stroke-width:8.33px;stroke-miterlimit:1;"/>
            </g>
            <g transform="matrix(1,0,0,1,-133.185,0)">
                <path d="M1764.52,1126.79c9.367,0 32.444,26.831 32.444,36.198l-0,9.691c-0,-0 -10.343,53.752 -13.222,69.062" style="fill:none;stroke:#000;stroke-width:8.33px;stroke-miterlimit:1;"/>
            </g>
            <g transform="matrix(-1,0,0,1,3362.77,0)">
                <path d="M1764.52,1126.79c9.367,0 32.444,26.831 32.444,36.198l-0,9.691c-0,-0 -10.343,53.752 -13.222,69.062" style="fill:none;stroke:#000;stroke-width:8.33px;stroke-miterlimit:1;"/>
            </g>
            <g transform="matrix(1,0,0,1,-133.185,0)">
                <path d="M1731.44,1126.79l33.087,0" style="fill:none;stroke:#000;stroke-width:8.33px;stroke-miterlimit:1;"/>
            </g>
            <g transform="matrix(1,0,0,1,-133.185,0)">
                <path d="M1748.82,1180.14c25.366,-0 47.048,-2.287 58.492,-13.731" style="fill:none;stroke:#000;stroke-width:8.33px;stroke-miterlimit:1;"/>
            </g>
            <g transform="matrix(1,0,0,1,-133.185,0)">
                <path d="M1783.74,1241.74c-2.573,2.573 -6.12,4.664 -10.284,6.275c-0.935,0.362 -1.9,0.699 -2.892,1.013c-18.811,5.942 -47.384,3.654 -58.326,-7.288" style="fill:none;stroke:#000;stroke-width:8.33px;stroke-miterlimit:1;"/>
            </g>
            <g transform="matrix(1,0,0,1,-133.185,0)">
                <path d="M1723.81,1178.96c0,-18.253 24.638,-18.602 24.638,-28.918" style="fill:none;stroke:#000;stroke-width:8.33px;stroke-miterlimit:1;"/>
            </g>
            <g transform="matrix(-1,0,0,1,3364.09,0)">
                <path d="M1723.81,1178.96c0,-18.253 24.638,-18.602 24.638,-28.918" style="fill:none;stroke:#000;stroke-width:8.33px;stroke-miterlimit:1;"/>
            </g>
            <g transform="matrix(0.611417,0,0,0.611417,545.548,471.519)">
                <path d="M1748.82,1197.71c2.814,9.286 8.661,15.538 18.466,17.832c-9.933,2.459 -16.501,8.284 -18.466,18.711c-1.965,-10.427 -8.532,-16.252 -18.466,-18.711c9.805,-2.294 15.653,-8.546 18.466,-17.832Z" style="stroke:#000;stroke-width:17.04px;stroke-miterlimit:1;"/>
            </g>
        </g>
        <g id="Coins" transform="matrix(1,0,0,1,155.631,0)">
            <g transform="matrix(1.06335,0,0,1.06335,-986.589,270.807)">
                <path d="M1748.82,1197.71c2.814,9.286 8.661,15.538 18.466,17.832c-9.933,2.459 -16.501,8.284 -18.466,18.711c-1.965,-10.427 -8.532,-16.252 -18.466,-18.711c9.805,-2.294 15.653,-8.546 18.466,-17.832Z" style="stroke:#000;stroke-width:9.8px;stroke-miterlimit:1;"/>
            </g>
            <g transform="matrix(1,0,0,1,-53.1313,56.8664)">
                <path d="M883.639,1473.1c9.912,-12.878 25.48,-21.183 42.972,-21.183c29.912,-0 54.197,24.285 54.197,54.197c0,25.068 -17.055,46.183 -40.185,52.366" style="fill:none;stroke:#000;stroke-width:8.33px;stroke-miterlimit:1;"/>
            </g>
            <g transform="matrix(1,0,0,1,-53.1313,56.8664)">
                <path d="M940.623,1558.48c-4.47,1.194 -9.167,1.831 -14.012,1.831c-29.912,0 -54.197,-24.285 -54.197,-54.197c-0,-12.42 4.187,-23.87 11.225,-33.014" style="fill:none;stroke:#000;stroke-width:8.33px;stroke-miterlimit:1;"/>
            </g>
            <g transform="matrix(1,0,0,1,-82.0918,76.2177)">
                <path d="M969.583,1539.13c-9.912,12.879 -25.48,21.183 -42.972,21.183c-29.912,0 -54.197,-24.285 -54.197,-54.197c-0,-25.068 17.055,-46.183 40.185,-52.365" style="fill:none;stroke:#000;stroke-width:8.33px;stroke-miterlimit:1;"/>
            </g>
        </g>
        <g id="Holly-Coin" serif:id="Holly Coin" transform="matrix(0.749056,0,0,0.749056,752.606,778.641)">
            <g transform="matrix(1.06335,0,0,1.06335,-986.589,270.807)">
                <path d="M1748.82,1197.71c2.814,9.286 8.661,15.538 18.466,17.832c-9.933,2.459 -16.501,8.284 -18.466,18.711c-1.965,-10.427 -8.532,-16.252 -18.466,-18.711c9.805,-2.294 15.653,-8.546 18.466,-17.832Z" style="stroke:#000;stroke-width:13.08px;stroke-miterlimit:1;"/>
            </g>
            <g transform="matrix(1.33501,0,0,1.33501,-778.737,-1039.5)">
                <path d="M1205.41,1924.67c7.425,-9.647 19.086,-15.867 32.189,-15.867c22.406,-0 40.596,18.19 40.596,40.596c0,18.777 -12.775,34.594 -30.101,39.225m0,-0c-3.348,0.895 -6.867,1.372 -10.495,1.372c-22.406,0 -40.597,-18.191 -40.597,-40.597c-0,-9.303 3.136,-17.88 8.408,-24.729" style="fill:none;stroke:#000;stroke-width:8.33px;stroke-miterlimit:1;"/>
            </g>
            <g transform="matrix(1.18795,0,0,1.18795,-635.289,-790.7)">
                <path d="M1335.01,1981.19c9.082,6.627 14.988,17.352 14.988,29.446c0,20.106 -16.323,36.429 -36.429,36.429c-8.098,-0 -15.582,-2.648 -21.633,-7.124" style="fill-opacity:0;stroke:#000;stroke-width:9.36px;stroke-miterlimit:1;"/>
            </g>
            <g transform="matrix(-1.18795,0,0,1.18795,2382.25,-790.7)">
                <path d="M1335.01,1981.19c9.082,6.627 14.988,17.352 14.988,29.446c0,20.106 -16.323,36.429 -36.429,36.429c-8.098,-0 -15.582,-2.648 -21.633,-7.124" style="fill-opacity:0;stroke:#000;stroke-width:9.36px;stroke-miterlimit:1;"/>
            </g>
            <g transform="matrix(1.33501,0,0,0.461312,-778.737,592.116)">
                <path d="M1237.6,1908.81l-0,-50.141" style="fill:none;stroke:#000;stroke-width:11.14px;stroke-miterlimit:1;"/>
            </g>
            <g transform="matrix(-1.33501,0,0,0.461312,2525.7,592.116)">
                <path d="M1237.6,1908.81l-0,-50.141" style="fill:none;stroke:#000;stroke-width:11.14px;stroke-miterlimit:1;"/>
            </g>
            <g transform="matrix(1.55391,1.03743e-17,5.89598e-17,1.55391,-1055.22,-1457.64)">
                <path d="M1278.2,1901.54l10.601,-10.601" style="fill:none;stroke:#000;stroke-width:7.16px;stroke-miterlimit:1;"/>
            </g>
            <g transform="matrix(-1.55391,1.03743e-17,-5.89598e-17,1.55391,2802.18,-1457.64)">
                <path d="M1278.2,1901.54l10.601,-10.601" style="fill:none;stroke:#000;stroke-width:7.16px;stroke-miterlimit:1;"/>
            </g>
        </g>
        <g id="Shop" transform="matrix(1,0,0,1,156.973,0)">
            <path d="M1934.06,1129.09l124.755,0" style="fill:none;stroke:#000;stroke-width:8.33px;stroke-miterlimit:1;"/>
            <path d="M1934.06,1129.09l0,29.097c0.044,3.657 2.873,5.757 9.193,5.908l53.185,0" style="fill:none;stroke:#000;stroke-width:8.33px;stroke-miterlimit:1;"/>
            <g transform="matrix(-1,0,0,1,3992.88,0)">
                <path d="M1934.06,1129.09l0,29.097c0.044,3.657 2.873,5.757 9.193,5.908l53.185,0" style="fill:none;stroke:#000;stroke-width:8.33px;stroke-miterlimit:1;"/>
            </g>
            <path d="M1978.36,1164.1l-0,-35.005" style="fill:none;stroke:#000;stroke-width:8.33px;stroke-miterlimit:1;"/>
            <g transform="matrix(-1,0,0,1,3992.88,0)">
                <path d="M1978.36,1164.1l-0,-35.005" style="fill:none;stroke:#000;stroke-width:8.33px;stroke-miterlimit:1;"/>
            </g>
            <path d="M1996.44,1254.35l-47.833,-0c-3.844,-0.827 -5.578,-3.763 -5.684,-8.329l0,-81.929" style="fill:none;stroke:#000;stroke-width:8.33px;stroke-miterlimit:1;"/>
            <g transform="matrix(-1,0,0,1,3992.88,0)">
                <path d="M1996.44,1254.35l-47.833,-0c-3.844,-0.827 -5.578,-3.763 -5.684,-8.329l0,-81.929" style="fill:none;stroke:#000;stroke-width:8.33px;stroke-miterlimit:1;"/>
            </g>
            <path d="M1978.04,1254.35c-0,-0 -0,1.169 -0,-47.123c-0,-3.281 3.974,-7.427 7.256,-7.427l11.15,0" style="fill:none;stroke:#000;stroke-width:8.33px;stroke-miterlimit:1;"/>
            <g transform="matrix(-1,0,0,1,3992.88,0)">
                <path d="M1978.04,1254.35c-0,-0 -0,1.169 -0,-47.123c-0,-3.281 3.974,-7.427 7.256,-7.427l11.15,0" style="fill:none;stroke:#000;stroke-width:8.33px;stroke-miterlimit:1;"/>
            </g>
        </g>
        <g id="Gas-Station" serif:id="Gas Station" transform="matrix(1,0,0,1,153.757,0)">
            <path d="M466.933,1560.31l-35.201,0l-0,59.106c-0,6.886 -6.351,10.886 -12.928,12.927l48.129,0" style="fill:none;stroke:#000;stroke-width:8.33px;stroke-miterlimit:1;"/>
            <g transform="matrix(-1,0,0,1,933.866,0)">
                <path d="M466.933,1560.31l-35.201,0l-0,59.106c-0,6.886 -6.351,10.886 -12.928,12.927l48.129,0" style="fill:none;stroke:#000;stroke-width:8.33px;stroke-miterlimit:1;"/>
            </g>
            <path d="M431.732,1560.31l-0,-38.779c-0,-3.577 2.607,-6.377 6.184,-6.377l29.017,-0" style="fill:none;stroke:#000;stroke-width:8.33px;stroke-miterlimit:1;"/>
            <g transform="matrix(-1,0,0,1,933.866,0)">
                <path d="M431.732,1560.31l-0,-38.779c-0,-3.577 2.607,-6.377 6.184,-6.377l29.017,-0" style="fill:none;stroke:#000;stroke-width:8.33px;stroke-miterlimit:1;"/>
            </g>
            <g transform="matrix(1.45768,0,0,0.705505,-204.766,467.231)">
                <path d="M454.668,1586.56l12.265,0" style="fill:none;stroke:#000;stroke-width:7.28px;stroke-miterlimit:1;"/>
            </g>
            <path d="M502.135,1560.31l17.629,0c5.162,0 9.871,4.629 9.79,9.791l0,31.109c0,12.918 26.935,12.918 26.935,-0l0,-62.284c0,-10.147 -11.463,-16.479 -21.611,-16.479" style="fill:none;stroke:#000;stroke-width:8.33px;stroke-miterlimit:1;"/>
        </g>
        <g id="Bar-code-" serif:id="Bar code " transform="matrix(1,0,0,1,155.463,0)">
            <path d="M1172.02,1546.1l-0,-17.002c-0,-10.222 10.442,-22.636 20.663,-22.636l17.521,0" style="fill:none;stroke:#000;stroke-width:8.33px;stroke-miterlimit:1;"/>
            <g transform="matrix(-1,0,0,1,2474.47,0)">
                <path d="M1172.02,1546.1l-0,-17.002c-0,-10.222 10.442,-22.636 20.663,-22.636l17.521,0" style="fill:none;stroke:#000;stroke-width:8.33px;stroke-miterlimit:1;"/>
            </g>
            <g transform="matrix(1,0,0,-1,0,3144.44)">
                <path d="M1172.02,1546.1l-0,-17.002c-0,-10.222 10.442,-22.636 20.663,-22.636l17.521,0" style="fill:none;stroke:#000;stroke-width:8.33px;stroke-miterlimit:1;"/>
            </g>
            <g transform="matrix(-1,0,0,-1,2474.47,3144.44)">
                <path d="M1172.02,1546.1l-0,-17.002c-0,-10.222 10.442,-22.636 20.663,-22.636l17.521,0" style="fill:none;stroke:#000;stroke-width:8.33px;stroke-miterlimit:1;"/>
            </g>
            <path d="M1196.68,1540.97l-0,60.956" style="fill:none;stroke:#000;stroke-width:8.33px;stroke-miterlimit:1;"/>
            <g transform="matrix(-1,0,0,1,2474.47,0)">
                <path d="M1196.68,1540.97l-0,60.956" style="fill:none;stroke:#000;stroke-width:8.33px;stroke-miterlimit:1;"/>
            </g>
            <g transform="matrix(1,0,0,1,-0.84233,0)">
                <path d="M1223.84,1586.98l-0,-46.007" style="fill:none;stroke:#000;stroke-width:8.33px;stroke-miterlimit:1;"/>
            </g>
            <g transform="matrix(-1,0,0,1,2475.31,0)">
                <path d="M1223.84,1586.98l-0,-46.007" style="fill:none;stroke:#000;stroke-width:8.33px;stroke-miterlimit:1;"/>
            </g>
        </g>
        <g id="Card" transform="matrix(1,0,0,1,177.961,0)">
            <path d="M1549.22,1590.61l0,31.566c0,7.259 5.894,13.152 13.153,13.152l108.421,0c7.259,0 13.152,-5.893 13.152,-13.152l0,-62.924c0,-4.471 -2.235,-8.424 -5.649,-10.801" style="fill:none;stroke:#000;stroke-width:8.33px;stroke-miterlimit:1;"/>
            <path d="M1678.3,1548.45c-2.128,-1.482 -4.715,-2.351 -7.503,-2.351l-108.421,-0c-7.259,-0 -13.153,5.893 -13.153,13.152l0,31.358" style="fill:none;stroke:#000;stroke-width:8.33px;stroke-miterlimit:1;"/>
            <g transform="matrix(0.981894,-0.189433,0.189433,0.981894,-277.043,302.678)">
                <path d="M1683.94,1593.62l0,-34.37c0,-7.259 -5.893,-13.152 -13.152,-13.152l-108.421,-0c-7.259,-0 -13.153,5.893 -13.153,13.152l0,51.314" style="fill:none;stroke:#000;stroke-width:8.33px;stroke-miterlimit:1;"/>
            </g>
            <path d="M1582.45,1569.96c0,-1.787 -1.45,-3.238 -3.237,-3.238l-6.968,0c-1.787,0 -3.238,1.451 -3.238,3.238l0,6.475c0,1.787 1.451,3.238 3.238,3.238l6.968,-0c1.787,-0 3.237,-1.451 3.237,-3.238l0,-6.475Z" style="stroke:#000;stroke-width:8.33px;stroke-miterlimit:1;"/>
            <path d="M1580.09,1598.57c0,-0.598 -0.485,-1.083 -1.083,-1.083l-8.918,-0c-0.598,-0 -1.084,0.485 -1.084,1.083l0,2.167c0,0.598 0.486,1.083 1.084,1.083l8.918,0c0.598,0 1.083,-0.485 1.083,-1.083l0,-2.167Z" style="stroke:#000;stroke-width:8.33px;stroke-miterlimit:1;"/>
            <g transform="matrix(1,0,0,1,27.2412,0)">
                <path d="M1580.09,1598.57c0,-0.598 -0.485,-1.083 -1.083,-1.083l-8.918,-0c-0.598,-0 -1.084,0.485 -1.084,1.083l0,2.167c0,0.598 0.486,1.083 1.084,1.083l8.918,0c0.598,0 1.083,-0.485 1.083,-1.083l0,-2.167Z" style="stroke:#000;stroke-width:8.33px;stroke-miterlimit:1;"/>
            </g>
            <g transform="matrix(1,0,0,1,54.3425,0)">
                <path d="M1580.09,1598.57c0,-0.598 -0.485,-1.083 -1.083,-1.083l-8.918,-0c-0.598,-0 -1.084,0.485 -1.084,1.083l0,2.167c0,0.598 0.486,1.083 1.084,1.083l8.918,0c0.598,0 1.083,-0.485 1.083,-1.083l0,-2.167Z" style="stroke:#000;stroke-width:8.33px;stroke-miterlimit:1;"/>
            </g>
            <g transform="matrix(1,0,0,1,81.237,0)">
                <path d="M1580.09,1598.57c0,-0.598 -0.485,-1.083 -1.083,-1.083l-8.918,-0c-0.598,-0 -1.084,0.485 -1.084,1.083l0,2.167c0,0.598 0.486,1.083 1.084,1.083l8.918,0c0.598,0 1.083,-0.485 1.083,-1.083l0,-2.167Z" style="stroke:#000;stroke-width:8.33px;stroke-miterlimit:1;"/>
            </g>
        </g>
        <g id="Car-Oil" serif:id="Car Oil" transform="matrix(1,0,0,1,187.513,0)">
            <path d="M1940.92,1638.02l-0,-75.7" style="fill:none;stroke:#000;stroke-width:8.33px;stroke-miterlimit:1;"/>
            <g transform="matrix(-1,0,0,1,3988.41,0)">
                <path d="M1940.92,1638.02l-0,-75.7" style="fill:none;stroke:#000;stroke-width:8.33px;stroke-miterlimit:1;"/>
            </g>
            <path d="M1940.92,1607.58c15.32,15.32 20.795,16.66 53.289,16.66" style="fill:none;stroke:#000;stroke-width:8.33px;stroke-miterlimit:1;"/>
            <g transform="matrix(-1,0,0,1,3988.41,0)">
                <path d="M1940.92,1607.58c15.32,15.32 20.795,16.66 53.289,16.66" style="fill:none;stroke:#000;stroke-width:8.33px;stroke-miterlimit:1;"/>
            </g>
            <path d="M1994.21,1494.78c0,12.351 -17.692,21.387 -17.692,33.738c0,10.443 7.249,16.401 17.692,16.401" style="fill:none;stroke:#000;stroke-width:8.33px;stroke-miterlimit:1;"/>
            <g transform="matrix(-1,0,0,1,3988.41,0)">
                <path d="M1994.21,1494.78c0,12.351 -17.692,21.387 -17.692,33.738c0,10.443 7.249,16.401 17.692,16.401" style="fill:none;stroke:#000;stroke-width:8.33px;stroke-miterlimit:1;"/>
            </g>
            <path d="M1960.25,1526.34l-5.695,0c-1.693,0 -4.741,-0.288 -7.525,6.309l-10.922,28.294" style="fill:none;stroke:#000;stroke-width:8.33px;stroke-miterlimit:1;"/>
            <g transform="matrix(-1,0,0,1,3988.41,0)">
                <path d="M1960.25,1526.34l-5.695,0c-1.693,0 -4.741,-0.288 -7.525,6.309l-10.922,28.294" style="fill:none;stroke:#000;stroke-width:8.33px;stroke-miterlimit:1;"/>
            </g>
            <path d="M1921.33,1560.94l13.281,-0c6.832,-0 25.797,9.644 59.597,9.644" style="fill:none;stroke:#000;stroke-width:8.33px;stroke-miterlimit:1;"/>
            <g transform="matrix(-1,0,0,1,3988.41,0)">
                <path d="M1921.33,1560.94l13.281,-0c6.832,-0 25.797,9.644 59.597,9.644" style="fill:none;stroke:#000;stroke-width:8.33px;stroke-miterlimit:1;"/>
            </g>
            <g transform="matrix(0.5,0,0,0.5,980.513,802.666)">
                <circle cx="1975.45" cy="1589.28" r="8.698" style="stroke:#000;stroke-width:16.67px;stroke-miterlimit:1;"/>
            </g>
            <g transform="matrix(-0.5,0,0,0.5,3008.57,802.666)">
                <circle cx="1975.45" cy="1589.28" r="8.698" style="stroke:#000;stroke-width:16.67px;stroke-miterlimit:1;"/>
            </g>
        </g>
        <g id="Person" transform="matrix(1,0,0,1,147.789,0)">
            <g transform="matrix(1.11564,0,0,1.11564,-81.0591,-194.238)">
                <circle cx="502.426" cy="1883.3" r="23.239" style="fill-opacity:0;stroke:#000;stroke-width:7.47px;stroke-miterlimit:1;"/>
            </g>
            <path d="M479.465,1957.48l-23.308,-0c-11.887,-0 -35.241,21.599 -35.241,36.892c-0,3.064 30.05,20.302 38.852,20.302m19.697,-57.194l23.308,-0c11.887,-0 35.241,21.599 35.241,36.892c-0,3.064 -30.05,20.302 -38.853,20.302" style="fill:none;stroke:#000;stroke-width:8.33px;stroke-miterlimit:1;"/>
            <g transform="matrix(1,0,0,1,0.304271,0)">
                <path d="M459.464,2014.67c13.144,1.963 26.262,2.044 39.393,0" style="fill:none;stroke:#000;stroke-width:8.33px;stroke-miterlimit:1;"/>
            </g>
        </g>
        <g id="Lock" transform="matrix(1,0,0,1,144.032,0)">
            <path d="M1565.75,1940.23l107.027,0l-0,26.622m-107.027,-26.622l0,26.622c0,66.227 107.027,66.227 107.027,-0" style="fill:none;stroke:#000;stroke-width:8.33px;stroke-miterlimit:1;"/>
            <g transform="matrix(1,0,0,1,0.618225,0)">
                <path d="M1589.47,1940.23l0,-35.703c0,-36.555 58.344,-36.555 58.344,-0l0,10.691" style="fill:none;stroke:#000;stroke-width:8.33px;stroke-miterlimit:1;"/>
            </g>
            <path d="M1619.26,1966.8l0,11.576" style="fill:none;stroke:#000;stroke-width:8.33px;stroke-miterlimit:1;"/>
        </g>
        <g id="Very-fast-flying-carpet" serif:id="Very fast flying carpet" transform="matrix(1,0,0,1,169.69,0)">
            <path d="M1928.02,1924.13l0,67.019" style="fill:none;stroke:#000;stroke-width:8.33px;stroke-miterlimit:1;"/>
            <path d="M1941.63,2005.33c-9.052,-0.069 -13.611,-5.127 -13.611,-14.18" style="fill:none;stroke:#000;stroke-width:8.33px;stroke-miterlimit:1;"/>
            <path d="M1955.24,1975.61l-0,-66.944" style="fill:none;stroke:#000;stroke-width:8.33px;stroke-miterlimit:1;"/>
            <path d="M1955.24,1908.67c-7.977,-0.345 -14.66,0.489 -19.42,3.072c-4.472,2.428 -7.247,6.399 -7.803,12.39" style="fill:none;stroke:#000;stroke-width:8.33px;stroke-miterlimit:1;"/>
            <g transform="matrix(1,0,0,1,0,67.0187)">
                <path d="M1955.24,1908.67c-7.977,-0.345 -14.66,0.489 -19.42,3.072c-4.472,2.428 -7.247,6.399 -7.803,12.39" style="fill:none;stroke:#000;stroke-width:8.33px;stroke-miterlimit:1;"/>
            </g>
            <path d="M1941.63,2005.33l111.795,-0l-0,-72.03l-73.653,0" style="fill:none;stroke:#000;stroke-width:8.33px;stroke-miterlimit:1;"/>
            <g transform="matrix(1,0,0,0.867319,1.82787,253.187)">
                <path d="M1979.94,1908.23l-0,-41.302" style="fill:none;stroke:#000;stroke-width:8.9px;stroke-miterlimit:1;"/>
            </g>
            <g transform="matrix(1,0,0,0.437442,28.6408,1073.49)">
                <path d="M1979.94,1908.23l-0,-41.302" style="fill:none;stroke:#000;stroke-width:10.8px;stroke-miterlimit:1;"/>
            </g>
            <g transform="matrix(1,0,0,1,-10.9048,-10.9175)">
                <circle cx="2004.87" cy="1980.23" r="10.918" style="stroke:#000;stroke-width:8.33px;stroke-miterlimit:1;"/>
            </g>
        </g>
        <g id="Very-big-coin-in-hand" serif:id="Very big coin in hand">
            <g transform="matrix(0.889027,0,0,0.889027,-924.788,1227.47)">
                <path d="M1748.82,1197.71c2.814,9.286 8.661,15.538 18.466,17.832c-9.933,2.459 -16.501,8.284 -18.466,18.711c-1.965,-10.427 -8.532,-16.252 -18.466,-18.711c9.805,-2.294 15.653,-8.546 18.466,-17.832Z" style="stroke:#000;stroke-width:11.72px;stroke-miterlimit:1;"/>
            </g>
            <g transform="matrix(1.11615,0,0,1.11615,-751.235,133.054)">
                <path d="M1205.41,1924.67c7.425,-9.647 19.086,-15.867 32.189,-15.867c22.406,-0 40.596,18.19 40.596,40.596c0,9.352 -3.866,19.742 -9.188,26.609" style="fill:none;stroke:#000;stroke-width:7.47px;stroke-miterlimit:1;"/>
            </g>
            <g transform="matrix(1.11615,0,0,1.11615,-750.52,132.166)">
                <path d="M1212.54,1981.34c-9.458,-7.435 -15.536,-18.979 -15.536,-31.931c-0,-9.303 3.136,-17.88 8.408,-24.729" style="fill:none;stroke:#000;stroke-width:7.47px;stroke-miterlimit:1;"/>
            </g>
            <g transform="matrix(1,0,0,1,144.361,0)">
                <path d="M427.622,2388.76l63.57,-0c20.372,-0 41.744,-28.272 48.437,-37.269c12.649,-17.003 -8.133,-27.485 -20.278,-10.982c-19.113,25.973 -36.74,25.298 -36.74,25.298l-27.372,0m-25.845,0.248c0,-15.65 9.18,-22.255 17.652,-22.255l50.01,0c0.182,14.896 -6.69,22.738 -22.071,22.071" style="fill:none;stroke:#000;stroke-width:8.33px;stroke-miterlimit:1;"/>
            </g>
        </g>
        <g id="Phone-crashed-by-shopping-cart" serif:id="Phone crashed by shopping cart" transform="matrix(1,0,0,1,136.158,0)">
            <path d="M887.619,2379.32c0,6.765 -5.492,12.257 -12.257,12.257l-56.748,0c-6.765,0 -12.258,-5.492 -12.258,-12.257l0,-110.703c0,-6.765 5.493,-12.257 12.258,-12.257l56.748,-0c6.765,-0 12.257,5.492 12.257,12.257" style="fill:none;stroke:#000;stroke-width:8.33px;stroke-miterlimit:1;"/>
            <g transform="matrix(1,0,0,0.5,-0.899601,1129.26)">
                <path d="M857.306,2259.42c-0,-1.691 -0.687,-3.064 -1.533,-3.064l-15.772,-0c-0.845,-0 -1.532,1.373 -1.532,3.064l0,6.129c0,1.691 0.687,3.064 1.532,3.064l15.772,0c0.846,0 1.533,-1.373 1.533,-3.064l-0,-6.129Z" style="fill:none;stroke:#000;stroke-width:10.54px;stroke-miterlimit:1;"/>
            </g>
            <path d="M887.619,2268.62l0,9.067" style="fill:none;stroke:#000;stroke-width:8.33px;stroke-miterlimit:1;"/>
            <g transform="matrix(1.07761,0.765485,-0.765485,1.07761,1734.92,-852.3)">
                <circle cx="871.221" cy="2358.32" r="2.581" style="stroke:#000;stroke-width:6.3px;stroke-miterlimit:1;"/>
            </g>
            <g transform="matrix(1.07761,0.765485,-0.765485,1.07761,1770.82,-852.3)">
                <circle cx="871.221" cy="2358.32" r="2.581" style="stroke:#000;stroke-width:6.3px;stroke-miterlimit:1;"/>
            </g>
            <path d="M841.204,2287.32c7.782,-0 7.867,-0.782 11.679,6.003l12.209,36.325c2.32,6.199 5.345,8.121 9.425,8.121c25.454,-0 24.149,-0 24.149,-0c5.469,-0 6.262,-3.407 9.393,-9.393l7.684,-18.725c3.1,-8.497 4.471,-8.094 -8.094,-8.094l-51.243,0" style="fill:none;stroke:#000;stroke-width:8.33px;stroke-miterlimit:1;"/>
        </g>
        <g id="Weird-tongue" serif:id="Weird tongue" transform="matrix(1,0,0,1,167.578,0)">
            <path d="M1282.16,2306.92l12.486,0c7.256,0 13.147,-5.891 13.147,-13.147c-0,-7.256 -5.891,-13.147 -13.147,-13.147l-117.144,-0c-7.256,-0 -13.147,5.891 -13.147,13.147c-0,7.256 5.891,13.147 13.147,13.147l14.338,0m0,-0.841l0,51.824c0,7.245 5.882,13.127 13.127,13.127l63.429,-0c7.245,-0 13.126,-5.882 13.126,-13.127l0,-77.277m-89.682,-0l0,25.453" style="fill-opacity:0;stroke:#000;stroke-width:8.33px;stroke-miterlimit:1;"/>
            <g transform="matrix(6.12323e-17,-1,1,6.12323e-17,-354.482,3920.07)">
                <path d="M1582.45,1569.96c0,-1.787 -1.45,-3.238 -3.237,-3.238l-6.968,0c-1.787,0 -3.238,1.451 -3.238,3.238l0,6.475c0,1.787 1.451,3.238 3.238,3.238l6.968,-0c1.787,-0 3.237,-1.451 3.237,-3.238l0,-6.475Z" style="stroke:#000;stroke-width:8.33px;stroke-miterlimit:1;"/>
            </g>
            <g transform="matrix(6.12323e-17,-1,1,6.12323e-17,-345.177,3892.83)">
                <path d="M1580.09,1598.57c0,-0.598 -0.485,-1.083 -1.083,-1.083l-8.918,-0c-0.598,-0 -1.084,0.485 -1.084,1.083l0,2.167c0,0.598 0.486,1.083 1.084,1.083l8.918,0c0.598,0 1.083,-0.485 1.083,-1.083l0,-2.167Z" style="stroke:#000;stroke-width:8.33px;stroke-miterlimit:1;"/>
            </g>
            <g transform="matrix(6.12323e-17,-1,1,6.12323e-17,-345.177,3918.51)">
                <path d="M1580.09,1598.57c0,-0.598 -0.485,-1.083 -1.083,-1.083l-8.918,-0c-0.598,-0 -1.084,0.485 -1.084,1.083l0,2.167c0,0.598 0.486,1.083 1.084,1.083l8.918,0c0.598,0 1.083,-0.485 1.083,-1.083l0,-2.167Z" style="stroke:#000;stroke-width:8.33px;stroke-miterlimit:1;"/>
            </g>
            <g transform="matrix(6.12323e-17,-1,1,6.12323e-17,-345.177,3864.95)">
                <path d="M1580.09,1598.57c0,-0.598 -0.485,-1.083 -1.083,-1.083l-8.918,-0c-0.598,-0 -1.084,0.485 -1.084,1.083l0,2.167c0,0.598 0.486,1.083 1.084,1.083l8.918,0c0.598,0 1.083,-0.485 1.083,-1.083l0,-2.167Z" style="stroke:#000;stroke-width:8.33px;stroke-miterlimit:1;"/>
            </g>
        </g>
        <g id="Qr-code" serif:id="Qr code" transform="matrix(1,0,0,1,167.578,0)">
            <g transform="matrix(1,0,0,1,380.764,747.818)">
                <path d="M1172.02,1546.1l-0,-17.002c-0,-10.222 10.442,-22.636 20.663,-22.636l17.521,0" style="fill:none;stroke:#000;stroke-width:8.33px;stroke-miterlimit:1;"/>
            </g>
            <g transform="matrix(-1,0,0,1,2855.23,747.818)">
                <path d="M1172.02,1546.1l-0,-17.002c-0,-10.222 10.442,-22.636 20.663,-22.636l17.521,0" style="fill:none;stroke:#000;stroke-width:8.33px;stroke-miterlimit:1;"/>
            </g>
            <g transform="matrix(1,0,0,-1,380.764,3892.26)">
                <path d="M1172.02,1546.1l-0,-17.002c-0,-10.222 10.442,-22.636 20.663,-22.636l17.521,0" style="fill:none;stroke:#000;stroke-width:8.33px;stroke-miterlimit:1;"/>
            </g>
            <g transform="matrix(-1,0,0,-1,2855.23,3892.26)">
                <path d="M1172.02,1546.1l-0,-17.002c-0,-10.222 10.442,-22.636 20.663,-22.636l17.521,0" style="fill:none;stroke:#000;stroke-width:8.33px;stroke-miterlimit:1;"/>
            </g>
            <rect x="1575.98" y="2279.38" width="28.272" height="28.272" style="fill-opacity:0;stroke:#000;stroke-width:8.33px;stroke-miterlimit:1;"/>
            <g transform="matrix(1,0,0,1,54.1175,0)">
                <rect x="1575.98" y="2279.38" width="28.272" height="28.272" style="fill-opacity:0;stroke:#000;stroke-width:8.33px;stroke-miterlimit:1;"/>
            </g>
            <g transform="matrix(1,0,0,1,0.347806,53.7697)">
                <rect x="1575.98" y="2279.38" width="28.272" height="28.272" style="fill-opacity:0;stroke:#000;stroke-width:8.33px;stroke-miterlimit:1;"/>
            </g>
            <g transform="matrix(1,0,0,1,54.0418,53.7697)">
                <path d="M1604.26,2279.38l-28.272,0" style="fill:none;stroke:#000;stroke-width:8.33px;stroke-miterlimit:1;"/>
            </g>
            <g transform="matrix(2.51588e-17,-0.410874,0.410874,2.51588e-17,693.563,3008.95)">
                <path d="M1604.26,2279.38l-28.272,0" style="fill:none;stroke:#000;stroke-width:20.28px;stroke-miterlimit:1;"/>
            </g>
            <g transform="matrix(0.410874,-3.08149e-33,1.70647e-33,0.410874,999.149,1413.26)">
                <path d="M1604.26,2279.38l-28.272,0" style="fill:none;stroke:#000;stroke-width:20.28px;stroke-miterlimit:1;"/>
            </g>
            <g transform="matrix(2.51588e-17,-0.410874,0.410874,2.51588e-17,721.835,3008.95)">
                <path d="M1604.26,2279.38l-28.272,0" style="fill:none;stroke:#000;stroke-width:20.28px;stroke-miterlimit:1;"/>
            </g>
        </g>
        <g id="Holly-ticket" serif:id="Holly ticket" transform="matrix(1,0,0,1,159.491,0)">
            <g transform="matrix(1,0,0,1.01048,0,-25.0362)">
                <path d="M2048.21,2326.51l-0,-56.94c-0,-3.128 -2.566,-5.667 -5.727,-5.667l-30.726,-0c-0,27.169 -35.189,27.169 -35.189,-0l-29.933,-0c-3.161,-0 -5.727,2.539 -5.727,5.667l0,56.669" style="fill-opacity:0;stroke:#000;stroke-width:8.29px;stroke-miterlimit:1;"/>
            </g>
            <g transform="matrix(1,0,0,-1.01048,0,4676.64)">
                <path d="M2048.21,2326.51l-0,-56.94c-0,-3.128 -2.566,-5.667 -5.727,-5.667l-30.726,-0c-0,27.169 -35.189,27.169 -35.189,-0l-29.933,-0c-3.161,-0 -5.727,2.539 -5.727,5.667l0,56.669" style="fill-opacity:0;stroke:#000;stroke-width:8.29px;stroke-miterlimit:1;"/>
            </g>
            <g transform="matrix(0.889027,0,0,0.889027,439.817,1244.71)">
                <path d="M1748.82,1197.71c2.814,9.286 8.661,15.538 18.466,17.832c-9.933,2.459 -16.501,8.284 -18.466,18.711c-1.965,-10.427 -8.532,-16.252 -18.466,-18.711c9.805,-2.294 15.653,-8.546 18.466,-17.832Z" style="stroke:#000;stroke-width:11.72px;stroke-miterlimit:1;"/>
            </g>
        </g>
    </g>
</svg>
