<?xml version="1.0" encoding="UTF-8"?>
<svg xmlns="http://www.w3.org/2000/svg" viewBox="0 0 538.13 71.42">
  <defs>
    <style>
      .g {
        stroke: #b95900;
      }

      .g, .h, .i, .j, .k {
        stroke-miterlimit: 10;
      }

      .g, .l, .i, .j {
        fill: none;
      }

      .h {
        stroke: #a0a0a0;
      }

      .h, .m {
        fill: #969696;
      }

      .n {
        fill: #cecece;
      }

      .o {
        fill: #f2f2f4;
      }

      .p {
        fill: #957552;
      }

      .q {
        fill: #b28a69;
      }

      .l {
        stroke-linecap: round;
        stroke-linejoin: round;
      }

      .l, .i, .j {
        stroke: #000;
      }

      .r {
        fill: #d8d8d8;
      }

      .s {
        fill: #c6c6c6;
      }

      .t {
        fill: #84664c;
      }

      .u {
        fill: #4c2a26;
      }

      .v {
        fill: #fff;
      }

      .w {
        fill: #643731;
      }

      .x {
        fill: #dfdfe1;
      }

      .y {
        fill: #fafafa;
      }

      .z {
        fill: #c69c6d;
      }

      .j {
        stroke-width: 2px;
      }

      .aa {
        fill: #c6bdbd;
      }

      .ab {
        fill: #5b3000;
      }

      .ac {
        fill: #bfbfbf;
      }

      .ad {
        fill: #42210b;
      }

      .ae {
        fill: #e0d7d6;
      }

      .af {
        fill: #d1d1d1;
      }

      .k {
        fill: #603813;
        stroke: #754c24;
      }
    </style>
  </defs>
  <g id="a" data-name="Layer 3 copy 3">
    <g>
      <g>
        <polygon class="p" points="166.94 70.32 154.28 70.32 160.29 64.63 163.19 67.12 166.94 70.32"/>
        <polygon class="t" points="166.94 70.32 154.78 70.32 154.52 70.22 163.19 67.12 166.94 70.32"/>
        <path class="p" d="M160.54,15.06h-28.71v-2.89c0-2.6,2.6-2.6,2.6-2.6h11.21l12.44-.02s2.6,0,2.6,2.6v2.91h-.14Z"/>
        <path class="z" d="M131.83,15.06v.02s-3.23,3.84-5.06,9.38c-.7,2.18-1.2,4.61-1.2,7.18v38.68h28.71V31.62c0-9.13,6.26-16.56,6.26-16.56h-28.71ZM147.07,43.2c-1.59,2.82-4.51,4.19-6.53,3.05-.06-.03-.11-.07-.17-.11-.23.83-.7,1.52-1.39,1.96-.23.15-.48.26-.73.33,0,.01-.01.01-.01.01-1.91.6-4.43-.61-5.96-3.02-1.74-2.72-1.57-5.95.39-7.2.07-.05.15-.09.23-.13,1.86-.97,4.52.08,6.21,2.44.16-.48.37-.97.63-1.44,1.59-2.82,4.51-4.19,6.53-3.05.23.13.44.29.63.47,1.45,1.39,1.57,4.19.17,6.69Z"/>
        <path class="ab" d="M138.24,48.44c-1.91.6-4.43-.61-5.96-3.02-1.74-2.72-1.57-5.95.39-7.2.07-.05.15-.09.23-.13-.65,1.09-.77,3.09.71,3.92,1.22.68,1.08.49,2.59,1.03,1.29.47,2,1.56,2.07,3.93.04,1.28,0,1.45-.02,1.46,0,.01-.01.01-.01.01Z"/>
        <path class="ab" d="M139.36,40.9c1.12,1.75,1.45,3.71,1.02,5.21h-.04s.02.03.03.03c-.23.83-.7,1.52-1.39,1.96-.23.15-.48.26-.73.33.02-.01.06-.18.02-1.46-.07-2.37-.78-3.46-2.07-3.93-1.51-.54-1.37-.35-2.59-1.03-1.48-.83-1.36-2.83-.71-3.92,1.86-.97,4.52.08,6.21,2.44.09.12.17.24.25.37Z"/>
        <path class="ab" d="M146.9,36.51s-.28.1-1.29.68c-2.06,1.18-2.69,2.32-2.49,3.68.24,1.59.34,1.37.31,2.77-.03,1.67-1.78,2.5-3.05,2.47.43-1.5.1-3.46-1.02-5.21-.08-.13-.16-.25-.25-.37.16-.48.37-.97.63-1.44,1.59-2.82,4.51-4.19,6.53-3.05.23.13.44.29.63.47Z"/>
        <path class="ab" d="M147.07,43.2c-1.59,2.82-4.51,4.19-6.53,3.05-.06-.03-.11-.07-.17-.11.01-.01.01-.02.01-.03,1.27.03,3.02-.8,3.05-2.47.03-1.4-.07-1.18-.31-2.77-.2-1.36.43-2.5,2.49-3.68,1.01-.58,1.24-.67,1.29-.68,1.45,1.39,1.57,4.19.17,6.69Z"/>
        <path class="z" d="M167.06,31.6v38.7l-4.86-4.16-1.25-1.07-.54-.46-.07.06-.53.51-1.09,1.03-4.32,4.09V31.6c0-8.84,5.87-16.09,6.24-16.54l.02-.02h.14s3.95,4.69,5.57,11.2c.43,1.68.69,3.48.69,5.36Z"/>
        <path class="q" d="M167.06,31.6v38.07l-1.69-1.53.21-42.85h.11s.27.34.68.95c.43,1.68.69,3.48.69,5.36Z"/>
        <path class="q" d="M158.71,66.77c0-40.45,0-26.06,0-34.54,0-11.64,1.73-15.62,1.73-15.62h.04s1.72,4,1.72,15.62v34.3l-1.2-1.33h0s-.62-1.85-.62-1.85l-.69,2.22h0s-.97,1.2-.97,1.2Z"/>
      </g>
      <line class="l" x1="125.57" y1="70.32" x2="154.28" y2="70.32"/>
      <path class="l" d="M154.28,70.32V31.62c0-9.13,6.26-16.56,6.26-16.56"/>
      <path class="l" d="M125.57,70.32V31.62c0-9.13,6.26-16.56,6.26-16.56h28.85s6.26,7.44,6.26,16.56v38.7s-6.65-5.7-6.65-5.7l-6.01,5.7"/>
      <path class="l" d="M154.28,31.62c0-9.13,6.26-16.56,6.26-16.56"/>
      <line class="l" x1="131.97" y1="70.32" x2="166.94" y2="70.32"/>
      <line class="l" x1="160.29" y1="23.34" x2="160.29" y2="64.63"/>
      <path class="l" d="M166.94,31.62c0-9.13-6.26-16.56-6.26-16.56v-2.91c0-2.6-2.6-2.6-2.6-2.6l-12.44.02"/>
      <path class="l" d="M125.57,31.64c0-9.13,6.26-16.56,6.26-16.56v-2.91c0-2.6,2.6-2.6,2.6-2.6h11.21"/>
      <g>
        <ellipse class="l" cx="135.82" cy="43.16" rx="4.2" ry="5.86" transform="translate(-1.87 79.92) rotate(-32.58)"/>
        <path class="l" d="M132.9,38.09c-.65,1.09-.77,3.09.71,3.92,1.22.68,1.08.49,2.59,1.04,1.29.46,2,1.55,2.07,3.93.05,1.58-.03,1.47-.03,1.47"/>
        <path class="l" d="M140.34,46.11s.02.03.03.03c.06.04.11.08.17.11,2.02,1.14,4.94-.23,6.53-3.05,1.4-2.5,1.28-5.3-.17-6.69-.19-.18-.4-.34-.63-.47-2.02-1.14-4.94.23-6.53,3.05-.26.47-.47.96-.63,1.44"/>
        <path class="l" d="M140.31,46.11c1.27.06,3.09-.77,3.12-2.47.03-1.4-.07-1.18-.31-2.77-.2-1.36.43-2.5,2.49-3.68,1.37-.79,1.31-.66,1.31-.66"/>
      </g>
    </g>
  </g>
  <g id="b" data-name="Layer 8">
    <g>
      <g>
        <path class="r" d="M97.96,37.77c.03,6.31-1.78,11.68-4.13,15.98-.57,1.04-1.17,2.01-1.78,2.92-2.58,3.83-5.4,6.54-7.1,8h-.01c-.96.83-1.56,1.25-1.56,1.25h-20.24s-.6-.42-1.56-1.24h-.01c-4.04-3.47-14.36-13.96-12.86-29.85,0-.11.02-.23.03-.34h49.04c.01.11.02.23.03.34.09,1,.14,1.98.15,2.94Z"/>
        <path class="r" d="M97.78,34.49c12.29-2.77,19.49,12.95-5.73,22.18.61-.91,1.21-1.88,1.78-2.92,17.45-6.61,12.64-17.68,4.13-15.98-.01-.96-.06-1.94-.15-2.94,0-.11-.02-.23-.03-.34Z"/>
      </g>
      <path class="l" d="M73.26,27.92s1.93-1.65,0-3.58-1.22-3.29,0-4.52.66-3.33-.52-4.51"/>
      <path class="l" d="M80.74,27.92s-1.54-1.31,0-2.85.97-2.62,0-3.6-.52-2.65.41-3.59"/>
      <path class="l" d="M88.68,27.92s.96-.82,0-1.79-.61-1.65,0-2.26.33-1.66-.26-2.25"/>
      <path class="l" d="M65.5,27.92s-1.54-1.31,0-2.85.97-2.62,0-3.6-.52-2.65.41-3.59"/>
      <path class="l" d="M58,27.92s.96-.82,0-1.79-.61-1.65,0-2.26.33-1.66-.26-2.25"/>
      <path class="i" d="M83.38,65.92s.6-.42,1.56-1.24l-.53,1.24h-1.03Z"/>
      <path class="i" d="M84.95,64.67h0c-.96.83-1.56,1.25-1.56,1.25h-20.24s-.6-.42-1.56-1.24h0c-4.04-3.47-14.36-13.96-12.86-29.85.01-.11.02-.23.03-.34h49.04c.01.11.02.23.03.34,1.5,15.89-8.82,26.38-12.86,29.84Z"/>
      <path class="i" d="M63.14,65.92h-1.03l-.53-1.24c.96.82,1.56,1.24,1.56,1.24Z"/>
      <path class="i" d="M97.78,34.49c12.29-2.77,19.49,12.95-5.73,22.18"/>
      <path class="i" d="M97.68,37.82c8.71-2,13.81,9.34-4.06,16.01"/>
    </g>
  </g>
  <g id="c" data-name="Layer 3 copy 2">
    <g>
      <g>
        <path class="r" d="M236.54,52.82h-4.82v-3.8h3.72c10.37,0,10.87-18.87-.1-18.87h-3.62v-3.8h4.68c15.39,0,14.68,26.47.14,26.47Z"/>
        <path class="s" d="M235.38,49.98h-3.66v-.96h3.72c10.37,0,10.87-18.87-.1-18.87h-3.62v-.26h3.55c11.68,0,11.14,20.09.11,20.09Z"/>
        <path class="r" d="M223.93,17.81h-31.55v44.23s0,5.41,5.41,5.41h28.51c5.42,0,5.42-5.41,5.42-5.41V17.81h-7.79ZM216.95,45.87c-3.3,2.85-7.63,3.25-9.68.89-.25-.28-.45-.59-.6-.92-1.18-2.43-.04-6.02,2.86-8.54,3.3-2.85,7.64-3.25,9.68-.89.08.09.15.18.21.27,1.76,2.41.71,6.44-2.47,9.19Z"/>
        <path class="ab" d="M219.42,36.68c1.76,2.41.71,6.44-2.47,9.19-3.3,2.85-7.63,3.25-9.68.89-.25-.28-.45-.59-.6-.92,0,0-.14.13,1.97-.24,3.15-.56,4.47-1.72,4.83-3.54.43-2.12.21-1.89.88-3.65.81-2.13,3.48-2.37,5.07-1.73Z"/>
        <path class="ab" d="M219.21,36.41c.08.09.15.18.21.27-1.59-.64-4.26-.4-5.07,1.73-.67,1.76-.45,1.53-.88,3.65-.36,1.82-1.68,2.98-4.83,3.54-2.11.37-1.97.24-1.97.24-1.18-2.43-.04-6.02,2.86-8.54,3.3-2.85,7.64-3.25,9.68-.89Z"/>
      </g>
      <path class="n" d="M234.71,52.82h-2.99v9.22s0,5.41-5.42,5.41h-2.37V17.81h7.79v8.54h.73l.3,3.54.02.26h-1.05v18.87h2.67l.08.96.24,2.84Z"/>
      <g>
        <ellipse class="l" cx="213.24" cy="41.58" rx="7.9" ry="5.66" transform="translate(24.85 149.81) rotate(-40.91)"/>
        <path class="l" d="M219.43,36.69c-1.59-.66-4.27-.43-5.09,1.71-.67,1.77-.45,1.53-.88,3.66-.37,1.82-1.68,2.97-4.84,3.53-2.1.37-1.96.25-1.96.25"/>
      </g>
      <path class="l" d="M192.37,17.81h39.34v44.24s0,5.41-5.41,5.41-15.27,0-15.27,0"/>
      <path class="l" d="M212.05,13.1s1.93-1.65,0-3.58-1.22-3.29,0-4.52.66-3.33-.52-4.51"/>
      <path class="l" d="M219.53,13.1s-1.54-1.31,0-2.85.97-2.62,0-3.6-.52-2.65.41-3.59"/>
      <path class="l" d="M227.47,13.1s.96-.82,0-1.79-.61-1.65,0-2.26.33-1.66-.26-2.25"/>
      <path class="l" d="M231.72,17.81c-39.06,0-39.34,0-39.34,0v44.24s0,5.41,5.41,5.41h13.25"/>
      <path class="l" d="M204.29,13.1s-1.54-1.31,0-2.85.97-2.62,0-3.6-.52-2.65.41-3.59"/>
      <path class="l" d="M196.79,13.1s.96-.82,0-1.79-.61-1.65,0-2.26.33-1.66-.26-2.25"/>
      <path class="l" d="M231.72,26.35h4.68c15.39,0,14.68,26.47.14,26.47h-4.82"/>
      <path class="l" d="M232.01,30.15h3.34c10.97,0,10.46,18.87.1,18.87h-3.44"/>
    </g>
  </g>
  <g id="d" data-name="Layer 3">
    <polygon class="o" points="26.47 70.15 3.45 70.15 0 33.33 29.92 33.33 26.47 70.15"/>
    <polygon class="x" points="14.84 33.33 14.84 70.15 26.47 70.15 29.92 33.33 14.84 33.33"/>
    <polygon class="k" points="1.08 44.84 3.45 70.15 26.47 70.15 28.84 44.84 1.08 44.84"/>
    <polygon class="ad" points="14.96 44.84 14.96 70.15 26.47 70.15 28.84 44.84 14.96 44.84"/>
  </g>
  <g id="e" data-name="Layer 3 copy">
    <g>
      <g>
        <path d="M322.66,22.22v9.69c0,6.75-9.45,9.42-9.45,9.42-1.94.55-4.71-2.89-.58-4.52,2.96-1.16,5.32-.81,5.5-5.5.1-2.37,0-7.95,0-7.95,0,0,.25-2.98-2.98-2.98h-6.27l-.17-.04.72-3.33h8.03c4.45,0,5.2,2.33,5.2,5.21Z"/>
        <path class="ac" d="M307.89,14.77c2.54-4.3,6.85-1.42,6.85-1.42-2.15,1.77-3.65,2.25-4.59,2.31l-2.26-.89Z"/>
        <path class="ac" d="M309.72,15.66h0s-8.19.01-8.19.01h-28.95l18.78-7.41,16.53,6.51,2.26.89c-.16.02-.3.01-.43,0Z"/>
        <path class="h" d="M310.02,67.62s1.04,3.3-1.69,3.3h-5.54l-4.56-26.49h5.96l5.83,23.19Z"/>
        <polygon class="h" points="309.43 17.01 308.71 20.34 304.54 39.53 302.98 39.53 298.42 39.53 298.42 39.3 301.53 15.67 309.72 15.67 309.43 17.01"/>
        <rect class="ac" x="279.74" y="39.53" width="23.24" height="4.9"/>
        <polygon class="m" points="302.98 39.53 302.98 40.96 280.35 40.45 279.8 39.53 302.98 39.53"/>
        <polygon class="ac" points="298.23 44.43 302.79 70.92 291.42 70.92 291.42 44.43 298.23 44.43"/>
        <polygon class="ac" points="301.53 15.67 298.42 39.3 298.42 39.53 291.42 39.53 291.3 39.53 284.31 39.53 284.31 39.3 281.19 15.67 291.3 15.67 291.42 15.67 301.53 15.67"/>
        <polygon class="ac" points="291.42 44.43 291.42 70.92 279.74 70.92 284.31 44.43 284.49 44.43 291.42 44.43"/>
        <polygon class="h" points="284.31 39.3 284.31 39.53 279.74 39.53 278.18 39.53 273.01 15.67 281.19 15.67 284.31 39.3"/>
        <path class="h" d="M284.31,44.43l-4.57,26.49h-5.23c-2.73,0-1.69-3.3-1.69-3.3l5.83-23.19h5.66Z"/>
        <path class="ac" d="M278.18,39.53l-16.18-24.08s1.92.16,7.17.2c1.01.02,2.14.02,3.41.02h.43l5.17,23.86Z"/>
        <path class="m" d="M278.18,39.53l-9.01-23.88c1.01.02,2.14.02,3.41.02h.43l5.17,23.86Z"/>
      </g>
      <rect class="af" x="289.48" y="44.53" width="3.39" height="26.38"/>
      <polygon class="af" points="273.68 15.45 293.56 9.12 291.36 8.26 273.68 15.45"/>
      <path class="i" d="M291.42,44.43v26.49h-16.91c-2.73,0-1.69-3.3-1.69-3.3l5.83-23.19h12.77Z"/>
      <path class="i" d="M291.42,44.43v26.49s16.91,0,16.91,0c2.73,0,1.69-3.3,1.69-3.3l-5.83-23.19h-12.77Z"/>
      <line class="i" x1="302.8" y1="70.92" x2="298.23" y2="44.43"/>
      <line class="i" x1="279.74" y1="70.92" x2="284.31" y2="44.43"/>
      <polyline class="i" points="279.74 44.43 279.74 39.53 278.18 39.53 273.01 15.67 281.2 15.67 291.42 15.67"/>
      <line class="i" x1="284.31" y1="39.29" x2="281.2" y2="15.67"/>
      <line class="i" x1="279.74" y1="39.53" x2="291.42" y2="39.53"/>
      <polyline class="i" points="302.99 44.43 302.99 39.53 304.54 39.53 309.72 15.67 301.53 15.67 291.31 15.67"/>
      <line class="i" x1="298.42" y1="39.29" x2="301.53" y2="15.67"/>
      <line class="i" x1="302.99" y1="39.53" x2="291.31" y2="39.53"/>
      <polyline class="i" points="310.18 15.67 291.36 8.25 291.36 8.25 272.58 15.67"/>
      <path class="i" d="M308.88,20.38h6.27c3.23,0,2.98,2.98,2.98,2.98,0,0,.09,5.58,0,7.95-.18,4.69-2.55,4.34-5.5,5.5-4.13,1.63-1.36,5.06.57,4.51,0,0,9.46-2.66,9.46-9.41v-9.69c0-2.88-.76-5.21-5.21-5.21h-8.08"/>
      <path class="i" d="M307.88,14.79c2.53-4.33,6.87-1.44,6.87-1.44-4.07,3.34-5.82,2.08-5.82,2.08"/>
      <path class="i" d="M273.01,15.67c-8.18.02-11-.22-11-.22l16.18,24.08"/>
    </g>
  </g>
  <g id="f" data-name="Layer 2">
    <path class="g" d="M526.87,21.32s8.92-5.18,5.72,12.66"/>
    <path class="g" d="M526.48,23.39c12.11-.42,11.12,12.89,11.12,12.89"/>
    <g>
      <g>
        <path class="ae" d="M401.67,30.13v26.89c0,3.13-3.67,6.26-6.21,6.26h-5.47v-3.5h3.71c1.72,0,4.21-2.58,4.21-5.16v-22.16c0-2.57-2.49-5.15-4.21-5.15h-3.71v-3.44h5.47c.78,0,1.66.29,2.52.79,1.93,1.13,3.69,3.3,3.69,5.47Z"/>
        <path class="w" d="M389.43,37.65v25.76c0,2.8-1.81,5.28-4.14,6.2-.62.25-1.27.38-1.94.38h-22.86c-3.18,0-6.16-3.03-6.07-6.58.08-3.17.1-15.46.08-25.76h34.93Z"/>
        <path class="y" d="M390,27.32v10.33h-17.51v-15.32h17.51v4.99Z"/>
        <path class="y" d="M390,15.27v7.06h-35.02c-3.69-1.16-5.75-3.4-5.64-7.06h40.66Z"/>
        <path class="y" d="M389.99,15.26v7.06h-35.02c-3.69-1.16-5.75-3.4-5.64-7.06h40.66Z"/>
        <path class="r" d="M390,15.27v22.38h-4.6c-.48-3.68-.76-10.78-.74-22.38h5.34Z"/>
        <path d="M390,15.27h-35.02c0-4.93,3.19-6.65,7-6.65h21.02c3.81,0,7,1.72,7,6.65Z"/>
        <path d="M375.88,6.42c0,.84-.31,1.61-.82,2.2h-5.14c-.51-.59-.82-1.36-.82-2.2,0-1.88,1.52-3.39,3.39-3.39s3.39,1.51,3.39,3.39Z"/>
        <path d="M375.92,6.32c0,.84-.31,1.61-.82,2.2h-5.14c-.51-.59-.82-1.36-.82-2.2,0-1.88,1.52-3.39,3.39-3.39s3.39,1.51,3.39,3.39Z"/>
        <path class="y" d="M372.49,22.33v15.32h-17.42c-.01-8.29-.04-15.32-.09-15.32h17.51Z"/>
        <path class="aa" d="M401.67,30.13v26.89c0,3.13-3.67,6.26-6.21,6.26h-5.47v-2.35h4.72c2.36,0,5.77-2.99,5.77-5.99v-25.72c0-1.7-1.11-3.41-2.5-4.56,1.93,1.13,3.69,3.3,3.69,5.47Z"/>
        <path class="u" d="M389.43,37.65v25.76c0,2.8-1.81,5.28-4.14,6.2-.08-.79-.12-1.65-.11-2.53.02-3.62.03-17.66.02-29.43h4.23Z"/>
      </g>
      <path class="v" d="M357.79,8.62s-3.95,2.52-3.86,3.43,1.93,1.99,1.93,1.99l4.38-4.99.33-1.46-6.16-1.67"/>
      <path class="v" d="M370.74,5.13c-.69.38-.24.81.34.16s-.34-.16-.34-.16Z"/>
      <path class="i" d="M354.94,22.44c.11-.16.14,35.36,0,41.08-.09,3.55,2.89,6.58,6.07,6.58h22.87c3.18,0,6.07-3.03,6.07-6.58,0-3.93,0-26.77,0-39.53,0-5.12,0-8.61,0-8.61h-40.66c-.1,3.66,1.95,5.9,5.65,7.06"/>
      <line class="i" x1="354.94" y1="22.44" x2="389.96" y2="22.44"/>
      <path class="i" d="M395.43,23.99h-5.48,5.48c2.54,0,6.21,3.13,6.21,6.26v26.89c0,3.13-3.67,6.26-6.21,6.26h-5.48"/>
      <path class="i" d="M393.67,27.42h-3.71,3.71c1.72,0,4.21,2.58,4.21,5.16v22.16c0,2.58-2.49,5.16-4.21,5.16h-3.71"/>
      <path class="i" d="M354.94,15.38c0-4.93,3.18-6.65,6.99-6.65s10.51,0,10.51,0h10.51c3.81,0,6.99,1.72,6.99,6.65"/>
      <path class="i" d="M369.88,8.73c-.51-.59-.82-1.36-.82-2.21,0-1.87,1.52-3.39,3.39-3.39s3.39,1.52,3.39,3.39c0,.84-.31,1.61-.82,2.21"/>
      <path class="j" d="M372.45,22.44v15.32h17.51-34.92"/>
    </g>
  </g>
</svg>